<svg width="31" height="30" viewBox="0 0 31 30" fill="none" xmlns="http://www.w3.org/2000/svg">
<path d="M22.975 13.4875V18.4875C22.975 18.8125 22.9625 19.125 22.925 19.425C22.6375 22.8 20.65 24.475 16.9875 24.475H16.4875C16.175 24.475 15.875 24.625 15.6875 24.875L14.1875 26.875C13.525 27.7625 12.45 27.7625 11.7875 26.875L10.2875 24.875C10.1874 24.7585 10.0652 24.6631 9.92779 24.5944C9.79043 24.5257 9.64074 24.4851 9.4875 24.475H8.9875C5 24.475 3 23.4875 3 18.4875V13.4875C3 9.825 4.6875 7.8375 8.05 7.55C8.35 7.5125 8.6625 7.5 8.9875 7.5H16.9875C20.975 7.5 22.975 9.5 22.975 13.4875Z" stroke="#999898" stroke-width="2" stroke-miterlimit="10" stroke-linecap="round" stroke-linejoin="round"/>
<path d="M27.975 8.4875V13.4875C27.975 17.1625 26.2875 19.1375 22.925 19.425C22.9625 19.125 22.975 18.8125 22.975 18.4875V13.4875C22.975 9.5 20.975 7.5 16.9875 7.5H8.98749C8.66249 7.5 8.34999 7.5125 8.04999 7.55C8.33749 4.1875 10.325 2.5 13.9875 2.5H21.9875C25.975 2.5 27.975 4.5 27.975 8.4875Z" stroke="#999898" stroke-width="2" stroke-miterlimit="10" stroke-linecap="round" stroke-linejoin="round"/>
<path d="M17.3688 16.5625H17.3813M12.9938 16.5625H13.0063M8.61877 16.5625H8.63127" stroke="#999898" stroke-width="2" stroke-linecap="round" stroke-linejoin="round"/>
</svg>
