<svg width="850" height="700" viewBox="0 0 850 700" fill="none" xmlns="http://www.w3.org/2000/svg">
<path d="M822.104 618.342H25.0005V635.684H822.104V618.342Z" fill="#E1E0E1"/>
<path d="M25 434.77V437.671H822.104V434.77H25ZM25 442.028V444.929H822.104V442.028H25ZM25 449.289V452.188H822.104V449.289H25ZM25 456.547V459.446H822.104V456.547H25ZM25 463.806V466.707H822.104V463.806H25ZM25 471.064V473.965H822.104V471.064H25ZM25 478.323V481.224H822.104V478.323H25ZM25 485.581V488.482H822.104V485.581H25ZM25 492.839V495.74H822.104V492.839H25ZM25 500.098V502.999H822.104V500.098H25ZM25 507.358V510.257H822.104V507.358H25ZM25 514.617V517.518H822.104V514.617H25ZM25 521.875V524.776H822.104V521.875H25ZM25 529.134V532.035H822.104V529.134H25ZM25 536.392V539.293H822.104V536.392H25ZM25 543.65V546.552H822.104V543.65H25ZM25 550.909V553.81H822.104V550.909H25ZM25 558.17V561.068H822.104V558.17H25ZM25 565.428V568.327H822.104V565.428H25ZM25 572.686V575.587H822.104V572.686H25ZM25 579.945V582.846H822.104V579.945H25ZM25 587.203V590.104H822.104V587.203H25ZM25 594.461V597.363H822.104V594.461H25Z" fill="#EBEAEB"/>
<path d="M545.426 387.509H338.955V396.773H545.426V387.509Z" fill="#8C8C8C"/>
<path d="M25 101.965V104.866H822.104V101.965H25ZM25 109.224V112.125H822.104V109.224H25ZM25 116.484V119.383H822.104V116.484H25ZM25 123.743V126.642H822.104V123.743H25ZM25 131.001V133.902H822.104V131.001H25ZM25 138.26V141.161H822.104V138.26H25ZM25 145.518V148.419H822.104V145.518H25ZM25 152.776V155.677H822.104V152.776H25ZM25 160.037V162.936H822.104V160.037H25ZM25 167.296V170.197H822.104V167.296H25ZM25 174.554V177.455H822.104V174.554H25ZM25 181.812V184.713H822.104V181.812H25ZM25 189.071V191.972H822.104V189.071H25ZM25 196.332V199.23H822.104V196.332H25ZM25 203.59V206.489H822.104V203.59H25ZM25 210.848V213.749H822.104V210.848H25ZM25 218.107V221.008H822.104V218.107H25ZM25 225.365V228.266H822.104V225.365H25ZM25 232.623V235.525H822.104V232.623H25ZM25 239.882V242.783H822.104V239.882H25ZM25 247.143V250.041H822.104V247.143H25ZM25 254.401V257.302H822.104V254.401H25Z" fill="#EBEAEB"/>
<path d="M419.105 352.191C410.735 352.217 399.515 353.992 390.181 362.565C382.625 369.838 377.002 378.291 372.675 387.507C404.333 387.324 436.42 387.524 467.41 387.379C458.768 366.532 444.485 353.46 422.505 352.273C421.439 352.22 420.301 352.187 419.105 352.191Z" fill="#2E2E2E" fill-opacity="0.797245"/>
<path d="M429.332 253.153C429.612 249.398 426.209 246.119 421.732 245.83C417.255 245.541 413.399 248.35 413.12 252.105L412.516 260.223C412.236 263.978 415.639 267.257 420.116 267.546C424.593 267.835 428.449 265.026 428.728 261.271L429.332 253.153Z" fill="#E9C46A"/>
<path d="M441.45 370.9C438.852 374.862 428.44 372.768 415.715 368.787C402.989 364.806 393.922 357.786 395.461 353.108C397.001 348.429 408.566 347.863 421.291 351.844C429.122 354.294 438.37 357.518 442.142 360.675C444.378 362.547 442.494 369.308 441.45 370.9Z" fill="#E9967A"/>
<path d="M418.016 262.04C410.794 262.36 398.313 262.603 385.535 275.039C373.197 285.515 370.556 296.078 361.986 326.179C348.688 372.885 417.488 374.59 421.274 373.697C427.126 367.973 429.377 357.77 430.196 351.951C430.174 345.567 379.761 345.515 382.673 330.384C383.425 326.476 379.933 323.282 379.853 317.823C378.025 331.81 370.571 335.141 370.466 349.398L452.462 354.329C454.097 348.97 451.166 324.059 449.015 316.67C441.446 327.109 452.462 354.329 480.623 372.406C480.623 372.406 492.366 366.43 493.025 352.134C492.072 353.707 468.119 313.623 460.889 297.419C455.398 287.64 454.812 284.28 444.109 272.283C440.938 270.457 436.158 264.036 418.016 262.04Z" fill="#E9C46A"/>
<path d="M421.974 260.328C431.816 260.965 440.518 251.758 441.411 239.764C442.303 227.771 435.048 217.533 425.206 216.896C415.364 216.26 406.662 225.467 405.77 237.46C404.877 249.454 412.132 259.692 421.974 260.328Z" fill="#E9967A"/>
<path d="M411.318 274.253C424.293 269.665 408.553 248.336 411.412 239.938C411.93 238.418 416.527 231.489 418.053 232.445C423.714 235.992 429.582 228.672 434.523 235.353C434.937 240.522 435.869 248.209 433.793 252.756C432.575 255.561 431.088 256.525 429.308 258.709C429.287 258.768 428.885 259.167 428.885 259.167C428.718 260.558 428.281 263.304 428.059 263.857C437.117 266.272 443.307 273.264 450.149 279.474C454.553 282.686 438.608 255.614 445.231 255.887C463.4 256.635 435.648 191.98 395.88 222.684C382.134 232.456 387.76 259.438 382.782 268.222C379.354 274.271 365.782 277.244 370.28 288.673C400.207 303.309 407.308 287.79 407.308 287.79C411.904 280.951 411.894 280.107 411.318 274.253Z" fill="black"/>
<path d="M452.926 338.458L530.556 338.182L524.192 389.684L446.562 389.96L452.926 338.458Z" fill="#2E2E2E"/>
<path d="M410.321 383.701L471.978 381.259L524.192 389.683L446.562 389.96L412.852 387.426C410.109 386.622 410.403 384.628 410.321 383.701Z" fill="#2E2E2E"/>
<path d="M640.057 585.702C696.924 585.702 743.023 539.737 743.023 483.035C743.023 426.333 696.924 380.367 640.057 380.367C583.19 380.367 537.091 426.333 537.091 483.035C537.091 539.737 583.19 585.702 640.057 585.702Z" fill="#E9C46A"/>
<path d="M537.097 483.033C537.08 455.623 544.922 436.91 559.699 418.849C577.647 396.912 605.439 380.713 636.044 380.444L635.915 485.077L537.097 483.033Z" fill="white" fill-opacity="0.4"/>
<path d="M557.056 483.445C557.038 461.571 563.3 446.638 575.093 432.224C589.415 414.718 611.595 401.791 636.018 401.576L635.915 485.077L557.056 483.445Z" fill="white" fill-opacity="0.198355"/>
<path d="M577.838 483.876C577.825 467.766 582.437 456.768 591.122 446.153C601.67 433.261 618.004 423.74 635.991 423.582L635.915 485.077L577.838 483.876Z" fill="white" fill-opacity="0.19887"/>
<path d="M640.064 392.614L639.909 392.623V422.829C673.246 422.828 700.272 449.774 700.272 483.014C700.272 516.255 673.246 543.201 639.909 543.2V574.58L640.064 574.588C690.458 574.588 731.311 533.853 731.312 483.605C731.313 433.355 690.459 392.619 640.064 392.619V392.614Z" fill="#22280B"/>
<path opacity="0.8" d="M578.729 155.687H566.393V240.3H578.729V155.687Z" fill="#E9C46A" fill-opacity="0.7"/>
<path opacity="0.8" d="M630.661 116.273H618.325V240.3H630.661V116.273Z" fill="#E9C46A" fill-opacity="0.7"/>
<path d="M527.963 224.546L644.369 124.032L657.369 139.378L540.963 239.892L527.963 224.546Z" fill="#2E2E2E"/>
<path opacity="0.8" d="M683.245 103.836H670.908V245.124H683.245V103.836Z" fill="#E9C46A" fill-opacity="0.7"/>
<path d="M659.885 111.219L706.4 174.944L690.884 187.756L644.369 124.032L659.885 111.219Z" fill="#2E2E2E"/>
<path opacity="0.8" d="M736.728 79.9316H724.392V240.3H736.728V79.9316Z" fill="#E9C46A" fill-opacity="0.7"/>
<path d="M690.884 187.756L787.499 107.188L800.701 122.361L703.364 203.548L690.884 187.756Z" fill="#2E2E2E"/>
<path d="M808.126 131.255L780.074 98.2947L825 88.6289L808.126 131.255Z" fill="#2E2E2E"/>
<path d="M775.145 240.301H529.388V245.125H775.145V240.301Z" fill="#E9C46A"/>
<path d="M552.628 175.18H540.292V242.479H552.628V175.18Z" fill="#E9C46A"/>
<path d="M603.27 134.016H590.933V240.301H603.27V134.016Z" fill="#E9C46A"/>
<path d="M654.858 88.2896H642.521V240.3H654.858V88.2896Z" fill="#E9C46A"/>
<path d="M708.36 111.667H696.023V240.3H708.36V111.667Z" fill="#E9C46A"/>
<path d="M764.363 64H752.026V240.3H764.363V64Z" fill="#E9C46A"/>
<path d="M116.733 65.7107L116.936 228.44H344.151L344.408 232.785H112.408V65.7107H116.733Z" fill="#2E2E2E"/>
<path opacity="0.8" d="M289.607 184.196L256.902 98.6317L237.088 142.261L226.452 116.05L203.375 166.879L167.638 85.6315L153.648 126.956L134.582 82.5603L116.834 132.545V228.567H289.607V184.196Z" fill="#E9C46A" fill-opacity="0.700144"/>
<path d="M327.998 228.44L272.977 115.873L250.889 153.713L239.032 130.98L213.307 175.064L173.468 104.598L157.873 140.439L136.619 101.934L116.834 145.287V228.567H309.436L327.998 228.44Z" fill="#E9C46A"/>
<path d="M272.977 120.122C271.553 120.122 270.399 118.971 270.399 117.552C270.399 116.133 271.553 114.982 272.977 114.982C274.4 114.982 275.554 116.133 275.554 117.552C275.554 118.971 274.4 120.122 272.977 120.122Z" fill="#2E2E2E"/>
<path d="M239.032 135.229C237.609 135.229 236.455 134.079 236.455 132.659C236.455 131.24 237.609 130.089 239.032 130.089C240.455 130.089 241.609 131.24 241.609 132.659C241.609 134.079 240.455 135.229 239.032 135.229Z" fill="#2E2E2E"/>
<path d="M250.889 156.555C249.466 156.555 248.312 155.404 248.312 153.985C248.312 152.565 249.466 151.415 250.889 151.415C252.313 151.415 253.467 152.565 253.467 153.985C253.467 155.404 252.313 156.555 250.889 156.555Z" fill="#2E2E2E"/>
<path d="M213.307 177.541C211.883 177.541 210.729 176.391 210.729 174.972C210.729 173.552 211.883 172.402 213.307 172.402C214.73 172.402 215.884 173.552 215.884 174.972C215.884 176.391 214.73 177.541 213.307 177.541Z" fill="#2E2E2E"/>
<path d="M173.468 108.847C172.045 108.847 170.891 107.696 170.891 106.277C170.891 104.857 172.045 103.707 173.468 103.707C174.892 103.707 176.046 104.857 176.046 106.277C176.046 107.696 174.892 108.847 173.468 108.847Z" fill="#2E2E2E"/>
<path d="M157.873 142.915C156.449 142.915 155.295 141.765 155.295 140.345C155.295 138.926 156.449 137.775 157.873 137.775C159.296 137.775 160.45 138.926 160.45 140.345C160.45 141.765 159.296 142.915 157.873 142.915Z" fill="#2E2E2E"/>
<path d="M136.619 106.183C135.196 106.183 134.042 105.032 134.042 103.613C134.042 102.194 135.196 101.043 136.619 101.043C138.043 101.043 139.197 102.194 139.197 103.613C139.197 105.032 138.043 106.183 136.619 106.183Z" fill="#2E2E2E"/>
<path d="M112.408 347.83V355.766H313.977V347.83H112.408ZM112.408 366.237V374.173H313.977V366.237H112.408ZM112.408 384.642V392.58H313.977V384.642H112.408ZM112.408 403.051V410.987H313.977V403.051H112.408ZM112.408 421.458V585.701H313.977V421.458H112.408Z" fill="#E9C46A" fill-opacity="0.991899"/>
<path opacity="0.8" d="M128.523 497.466V585.701H112.408V497.466H128.523Z" fill="white" fill-opacity="0.500728"/>
<path opacity="0.8" d="M154.905 477.741V585.701H138.79V477.741H154.905Z" fill="white" fill-opacity="0.500728"/>
<path opacity="0.8" d="M181.266 483.745V585.701H165.151V483.745H181.266Z" fill="white" fill-opacity="0.500728"/>
<path opacity="0.8" d="M208.084 522.917V585.701H191.97V522.917H208.084Z" fill="white" fill-opacity="0.500728"/>
<path opacity="0.8" d="M234.279 485.692V585.7H218.165V485.692H234.279Z" fill="white" fill-opacity="0.500728"/>
<path opacity="0.8" d="M261.106 475.552V585.701H244.991V475.552H261.106Z" fill="white" fill-opacity="0.500728"/>
<path opacity="0.8" d="M287.85 457.571V585.701H271.735V457.571H287.85Z" fill="white" fill-opacity="0.500728"/>
<path opacity="0.8" d="M313.72 457.57V585.7H297.605V457.57H313.72Z" fill="white" fill-opacity="0.500728"/>
</svg>
