<svg width="850" height="700" viewBox="0 0 850 700" fill="none" xmlns="http://www.w3.org/2000/svg">
<path opacity="0.8" d="M145.411 198.506C99.6088 198.275 68.3201 228.182 55.1525 289.244C37.9706 368.921 86.1975 370.249 139.38 364.986V506.082C123.458 506.307 108.656 507.437 97.8762 509.252C87.0968 511.068 81.118 513.436 81.1126 515.894C81.1213 518.351 87.1015 520.72 97.8806 522.535C108.66 524.349 123.46 525.48 139.38 525.704V525.831C139.38 525.839 139.384 525.844 139.39 525.844H151.074C151.08 525.844 151.084 525.835 151.084 525.831V525.704C167.004 525.48 181.804 524.349 192.583 522.535C203.362 520.72 209.343 518.351 209.351 515.894C209.352 513.436 203.376 511.066 192.596 509.25C181.816 507.434 167.01 506.303 151.084 506.078V363.8C198.989 359.344 237.333 371.899 241.66 307.904C246.077 242.58 201.819 202.109 152.276 198.759C149.953 198.602 147.664 198.517 145.411 198.506Z" fill="#E9C46A" fill-opacity="0.895119"/>
<path d="M293.355 272.815V289.646H327.164L281.1 525.844L292.658 525.842L340.548 289.646H351.541L393.748 525.842L404.748 525.844L364.273 289.646H396.01V272.815H293.355Z" fill="#E1E0E1"/>
<path d="M304.69 149.785C301.718 149.896 302.148 154.411 311.321 172.003C313.841 176.835 318.501 177.753 321.571 177.805C322.927 177.83 324.796 177.556 326.68 176.831C327.504 178.102 328.481 179.672 329.632 181.637C330.487 183.096 331.396 184.699 332.627 186.92C335.127 191.546 337.988 197.006 340.014 202.721C341.329 206.528 342.413 211.477 342.796 213.175H333.257C329.131 213.175 326.328 212.233 325.81 215.16C323.085 230.55 329.462 251.452 333.693 270.83C334.327 273.734 337.016 272.815 341.142 272.815H348.224C352.35 272.815 355.038 273.734 355.671 270.83C359.784 251.96 365.875 230.796 363.557 215.16C363.121 212.22 360.233 213.175 356.108 213.175H344.066C344.535 212.357 344.916 211.55 345.07 210.877C346.688 206.332 348.374 203.713 350.094 202.452C348.718 202.207 347.472 202.586 346.415 203.88C346.516 203.565 346.62 203.253 346.724 202.951C348.75 197.236 351.608 191.777 354.108 187.15C355.339 184.929 356.249 183.326 357.103 181.867C357.128 181.824 357.147 181.794 357.169 181.756C360.661 183.058 365.432 182.63 369.15 175.511C375.34 163.658 367.47 169.539 364.011 164.952C359.98 159.606 360.429 143.881 351.115 170.697C349.796 174.494 351.661 177.459 353.187 179.133C353.847 179.858 354.91 180.702 356.214 181.342C356.214 181.342 356.214 181.343 356.214 181.342C355.354 182.81 354.439 184.423 353.203 186.653C350.7 191.286 347.805 196.811 345.748 202.612C344.781 205.411 343.937 208.826 343.396 211.153C342.858 208.827 341.987 205.272 340.989 202.382C338.932 196.58 336.037 191.056 333.533 186.423C332.297 184.193 331.384 182.584 330.524 181.116C329.411 179.215 328.455 177.673 327.645 176.417C332.26 174.239 336.458 169.137 332.837 158.69C326.9 141.564 325.387 154.796 317.645 153.943C313.276 153.461 307.482 149.68 304.69 149.785ZM350.094 202.452C357.435 203.762 368.452 222.848 373.956 215.681C367.945 223.33 358.608 196.21 350.094 202.452Z" fill="#E1E0E1"/>
<path d="M824.988 665.997H387.843C387.837 665.997 387.832 666.002 387.832 666.008V678.697C387.832 678.703 387.837 678.709 387.843 678.709H824.988C824.995 678.709 825 678.703 825 678.697V666.008C825 666.002 824.995 665.997 824.988 665.997Z" fill="#E1E0E1"/>
<path d="M453.43 521.541H25.0116C25.0052 521.541 25 521.546 25 521.553V533.988C25 533.994 25.0052 533.999 25.0116 533.999H453.43C453.437 533.999 453.442 533.994 453.442 533.988V521.553C453.442 521.546 453.437 521.541 453.43 521.541Z" fill="#E1E0E1"/>
<path opacity="0.8" d="M686.964 81.3843C694.189 81.3843 700.025 83.5539 700.006 86.2488L699.907 100.359C699.907 100.359 697.651 100.062 694.091 100.024C692.072 100.003 689.62 100.047 686.964 100.277C683.518 100.575 680.81 101.015 678.377 101.479C675.496 102.029 673.806 102.498 673.806 102.498L673.922 86.2488C673.942 83.5539 679.738 81.3843 686.964 81.3843Z" fill="#E9C46A" fill-opacity="0.899582"/>
<path d="M685.544 95.098C698.083 95.1428 708.297 81.4568 708.358 64.5295C708.418 47.6022 698.302 33.8436 685.763 33.7989C673.224 33.7541 663.011 47.4401 662.95 64.3674C662.89 81.2947 673.005 95.0533 685.544 95.098Z" fill="#E9967A"/>
<path opacity="0.8" d="M639.026 119.965C635.43 119.965 698.535 72.714 742.964 123.656C746.861 126.331 757.277 147.019 764.535 166.539C769.9 180.969 773.541 194.76 771.547 200.164C767.035 212.397 756.71 217.254 748.931 219.096C748.931 219.096 749.091 227.714 748.999 235.682C748.751 257.351 749.081 251.681 750.107 261.52C745.263 272.555 629.487 269.544 617.196 262.477C616.825 263.085 615.352 257.575 616.381 246.357C619.327 214.23 625.798 174.252 625.715 152.398C625.833 170.953 627.42 191.319 624.577 210.437C628.36 226.747 584.023 215.52 601.372 184.276C606.531 174.985 613.656 148.818 639.026 119.965Z" fill="#E9C46A" fill-opacity="0.899582"/>
<path d="M652.04 272.864H715.325C732.45 272.864 747.235 291.319 747.221 313.215L747.007 633.788H700.211C701.735 635.188 687.234 360.728 687.234 351.941C687.234 347.947 675.76 634.414 675.76 634.414C680.039 634.316 624.423 634.414 624.423 634.414L623.122 315.605C623.058 299.941 634.911 272.864 652.04 272.864Z" fill="#8C8C8C"/>
<path d="M705.874 80.2149C705.025 84.0916 701.573 77.645 703.02 70.9117C706.655 67.1128 706.595 59.7822 699.198 64.4278C706.002 50.2646 662.62 73.7635 655.238 58.3534C649.2 57.9561 649.357 54.0122 651.796 49.2652C655.036 42.9606 663.774 36.3919 673.937 31.2443C679.43 28.4623 688.633 25.7702 704.958 33.5346C716.268 38.9139 713.215 63.4078 713.012 64.9242C711.775 71.1338 709.016 75.3205 705.874 80.2149Z" fill="black"/>
<path d="M704.442 633.781C704.442 633.781 693.637 638.188 689.639 643.023C680.186 653.36 688.681 665.276 698.399 665.407C702.248 665.456 699.827 665.67 705.266 665.67H739.596C745.035 665.67 748.857 662.742 749.415 659.189C750.236 653.953 751.354 648.898 749.415 641.946C748.446 638.472 745.859 633.788 740.42 633.788H704.442V633.781ZM630.384 634.37C630.384 634.37 599.96 644.286 595.959 649.165C586.506 659.502 596.422 665.865 606.141 665.996C609.99 666.044 625.769 666.259 631.208 666.259H665.538C670.977 666.259 674.797 663.33 675.355 659.778C676.176 654.542 677.294 649.487 675.355 642.535C674.386 639.06 671.799 634.377 666.359 634.377H630.384V634.37Z" fill="black"/>
<path d="M644.89 163.008C644.43 163.008 643.946 163.049 643.448 163.129C640.401 163.614 636.644 165.536 632.41 168.44C632.347 168.542 632.284 168.644 632.225 168.747C632.059 169.009 631.893 169.272 631.744 169.542C631.582 169.807 631.425 170.074 631.277 170.346C631.118 170.608 630.975 170.877 630.834 171.147C630.687 171.416 630.54 171.685 630.409 171.96C630.285 172.238 630.138 172.509 630.015 172.787C629.893 173.067 629.76 173.344 629.646 173.627C629.521 173.903 629.401 174.182 629.304 174.468C629.205 174.755 629.079 175.036 628.999 175.328C628.9 175.629 628.797 175.93 628.719 176.237C628.621 176.55 628.537 176.865 628.483 177.187C628.389 177.523 628.333 177.865 628.25 178.204C628.183 178.567 628.123 178.933 628.044 179.294C627.98 179.679 627.929 180.065 627.864 180.45C627.793 180.861 627.783 181.278 627.722 181.69C627.657 182.131 627.651 182.574 627.597 183.014C627.577 183.488 627.557 183.962 627.532 184.435C627.499 184.968 627.571 185.498 627.576 186.028C627.589 186.631 627.7 187.223 627.735 187.825C627.832 188.538 628.065 189.221 628.176 189.935C628.329 190.597 628.503 191.257 628.668 191.917C628.723 191.956 628.778 191.993 628.834 192.03C629.278 192.324 629.739 192.598 630.198 192.877C630.663 193.192 631.166 193.451 631.669 193.714C632.172 194.008 632.688 194.291 633.23 194.524C633.735 194.761 634.247 195.025 634.802 195.157C635.272 195.325 635.745 195.479 636.222 195.626C644.014 188.597 652.779 180.107 655.231 174.61C656.722 171.27 649.955 164.802 647.628 163.616C646.82 163.204 645.904 163.007 644.89 163.008Z" fill="#E9967A"/>
<path d="M635.552 145.114L662.74 143.871L674.699 181.877L647.772 182.347L635.552 145.114Z" fill="#2E2E2E"/>
<path opacity="0.8" d="M252.836 88.5204L227.425 87.4312L216.248 120.722L241.415 121.134L252.836 88.5204Z" fill="#E9C46A" fill-opacity="0.902519"/>
<path d="M653.254 157.194C649.343 157.155 646.469 158.022 644.964 160.072C643.204 162.468 639.688 172.839 642.992 175.922C648.565 181.122 662.625 186.845 674.555 191.255C675.885 191.747 677.207 192.201 678.519 192.625C678.489 191.971 678.451 191.318 678.409 190.665C678.305 189.11 678.238 187.552 678.124 185.998C677.998 184.373 677.907 182.747 677.805 181.12C677.669 179.502 677.624 177.879 677.457 176.263C677.274 174.687 677.174 173.105 677.066 171.525C676.77 168.927 677.159 172.573 676.97 170.042C676.901 169.116 676.706 168.192 676.75 167.26C676.514 166 676.365 164.726 676.199 163.456C676.13 163.05 676.114 162.945 676.095 162.846C676.141 163.066 676.205 163.296 676.105 162.302C666.955 159.248 658.989 157.249 653.254 157.194Z" fill="#E9967A"/>
<path d="M483.738 655.085C471.371 637.488 512.38 654.516 514.068 633.395C514.514 627.814 520.101 615.354 525.593 614.551C530.011 613.905 526.317 618.046 525.55 623.204C524.92 627.44 525.023 630.954 526.621 628.75C532.878 620.123 580.45 581.175 589.909 595.791C601.593 613.847 564.653 666.605 543.533 666.257L495.628 665.468C491.602 665.402 486.043 658.351 483.784 655.149" fill="#E9C46A"/>
<path d="M519.979 647.459C508.263 609.863 476.111 600.225 482.913 616.465C483.913 618.854 491.812 630.552 489.499 630.051C472.928 626.461 455.053 578.347 443.727 593.439C430.821 610.637 466.848 665.555 487.971 665.679L535.876 665.958C539.901 666.014 525.02 655.1 519.979 647.459Z" fill="#E9C46A"/>
<path opacity="0.8" d="M522.174 665.905C514.89 661.828 516.018 665.123 512.843 659.673C509.789 654.429 514.786 651.894 507.329 645.056C493.591 635.533 492.903 633.639 488.34 647.57C487.257 650.877 490.195 665.634 511.923 665.818L522.174 665.905Z" fill="white" fill-opacity="0.502092"/>
<path opacity="0.8" d="M522.174 665.905C521.948 637.113 547.554 615.372 550.939 640.568C549.164 654.18 542.056 652.684 536.026 654.073C525.386 656.524 529.148 665.732 525.316 665.678" fill="white" fill-opacity="0.502092"/>
<path d="M276.201 21C262.948 21 252.279 28.6553 252.279 38.165V46.6925C252.279 50.3573 252.3 69.5644 252.313 74.257C252.321 76.8161 266.909 63.9396 276.203 63.8575H377.148C390.401 63.8575 401.072 56.2022 401.072 46.6925V38.165C401.072 28.6553 390.401 21 377.148 21H276.201ZM481.363 68.3801C464.669 68.3801 451.228 78.0241 451.228 90.0029V100.745C451.228 112.724 464.669 122.366 481.363 122.366H608.517C620.224 122.469 638.601 138.691 638.611 135.468C638.628 129.557 638.652 105.362 638.652 100.745V90.0029C638.652 78.0241 625.211 68.3801 608.517 68.3801H481.363Z" fill="#E9C46A"/>
<path d="M181.726 96.1015C182.626 90.9972 177.281 85.833 169.786 84.5669C162.291 83.3008 155.485 86.4123 154.584 91.5165L151.511 108.927C150.61 114.031 155.956 119.195 163.451 120.461C170.946 121.727 177.752 118.616 178.653 113.512L181.726 96.1015Z" fill="#2E2E2E"/>
<path d="M246.878 120.173C253.137 124.943 248.246 141.45 239.897 161.419C231.549 181.389 218.621 195.011 211.024 191.845C203.427 188.68 204.036 169.925 212.385 149.956C217.523 137.667 224.143 123.203 229.917 117.571C233.339 114.232 244.362 118.255 246.878 120.173Z" fill="#E9967A"/>
<path d="M164.205 104.882C118.918 107.015 84.0077 166.162 91.0946 198.855C93.8478 211.556 124.291 207.484 134.637 206.523C157.619 201.121 226.006 177.003 214.303 154.744L202.607 132.497C198.818 125.289 105.774 190.916 105.854 187.765C105.854 187.765 90.8686 237.226 94.2127 236.079L219.086 240.933C218.594 235.83 219.497 230.329 216.895 211.193C219.59 215.238 236.988 183.979 245.479 152.717C248.813 146.038 229.728 138.252 216.69 140.04C215.597 139.348 209.917 152.951 213.408 153.04C209.907 136.916 192.698 104.934 164.205 104.882Z" fill="#2E2E2E"/>
<path d="M171.871 98.6206C187.837 99.4234 201.371 85.5331 202.099 67.5959C202.828 49.6587 190.475 34.4668 174.509 33.664C158.542 32.8612 145.009 46.7515 144.28 64.6887C143.552 82.626 155.905 97.8178 171.871 98.6206Z" fill="#E9967A"/>
<path d="M220.345 114.463C219.695 114.471 219.096 114.582 218.576 114.832C212.653 117.686 204.335 125.96 196.846 134.172C196.937 134.226 197.03 134.281 197.117 134.343C197.347 134.506 197.543 134.711 197.766 134.884C199.082 135.903 198.033 134.967 199.182 136.052C200.838 137.344 199.207 136.009 200.65 137.359C200.907 137.599 201.202 137.801 201.453 138.046C201.688 138.275 201.88 138.542 202.105 138.781C203.392 140.147 202.321 138.874 203.461 140.287C204.822 141.851 206.135 143.462 207.283 145.177C208.194 146.264 208.875 147.498 209.613 148.691C210.731 150.498 209.696 148.69 210.695 150.483C211.789 152.28 212.711 154.16 213.633 156.04C213.765 156.341 213.888 156.646 214.027 156.945C214.109 157.122 214.197 157.296 214.286 157.471C214.532 157.198 214.776 156.927 215.021 156.65C228.638 141.24 238.025 127.935 233.598 121.928C232.041 119.815 224.895 114.432 220.345 114.463Z" fill="#E9967A"/>
<path d="M151.625 107.532C173.966 106.714 150.714 109.709 157.29 96.3319C157.818 95.2582 170.868 85.9764 161.481 79.7937C160.094 78.8812 157.861 70.4127 164.037 72.5314C166.108 73.2411 167.256 73.164 167.884 72.5886C167.927 72.5465 168.03 72.5061 168.022 72.4446C167.825 70.6359 163.571 60.5931 179.527 62.4661C186.621 63.2988 190.196 66.0089 193.865 64.1266C194.68 63.7086 193.567 76.3015 190.686 84.3828C187.658 92.8789 181.367 96.5932 181.29 97.0992L179.588 108.209C179.812 107.637 192.271 115.969 192.896 117.27C194.294 120.181 195.901 117.055 198.877 110.681C206.666 94.0005 206.352 66.2391 198.914 46.4612C198.178 44.5048 197.71 44.5064 194.87 41.8488C182.18 29.9767 163.351 32.8478 152.425 38.7542C140.066 45.4351 136.594 52.6559 132.138 61.0903C126.653 71.4755 129.366 76.7235 121.804 81.4803C99.3142 99.1064 123.406 101.756 106.221 106.349C73.9366 114.978 88.0703 158.408 104.464 144.776C104.632 144.819 111.488 134.526 115.601 130.78C119.159 127.54 121.715 124.041 127.609 119.891C132.703 116.453 136.742 113.194 144.896 109.851C148.623 108.743 147.937 108.485 151.625 107.532Z" fill="black"/>
<path d="M274.533 496.494L307.841 497.029C298.528 272.514 287.089 311.253 177.543 298.285C297.882 310.873 282.29 356.512 340.051 474.6L378.603 451.333C365.482 419.959 330.154 288.297 265.237 263.363C248.574 256.963 239.267 254.112 223.133 250.564C208.621 246.649 131.509 233.722 107.512 256.865C95.2991 268.602 94.1221 286.489 93.2998 296.973C96.7139 342.252 123.06 340.001 186.564 340.459C214.109 340.658 201.527 341.263 232.05 342.544C234.203 342.634 262.157 496.247 262.157 496.247L274.533 496.494Z" fill="#8C8C8C"/>
<path d="M406.723 448.378C397.925 448.45 386.698 452.61 375.994 453.183L342.659 472.749C341.798 475.55 341.11 477.958 341.923 481.442C343.213 486.972 349.117 501.418 361.325 494.529L404.089 471.086C407.963 468.963 423.171 460.628 419.298 454.326C416.406 449.765 412.001 448.336 406.723 448.378ZM264.224 496.248C262.092 498.258 260.296 500.682 259.281 504.113C257.671 509.558 255.664 525.032 269.681 525.074L318.445 525.825C322.862 525.894 340.202 526.158 339.948 518.766C339.251 504.38 318.162 504.514 302.82 496.85L264.224 496.248Z" fill="black"/>
</svg>
