<svg width="200" height="148" viewBox="0 0 200 148" fill="none" xmlns="http://www.w3.org/2000/svg">
<path d="M30.9696 128.42C34.1251 128.42 36.9165 127.176 38.4943 125.659V115.1H30.0897V119.53H33.67V123.171C33.1846 123.535 32.335 123.748 31.5461 123.748C27.3287 123.748 25.3262 121.138 25.3262 116.648C25.3262 112.248 27.7231 109.639 31.0607 109.639C32.9418 109.639 34.1251 110.397 35.2478 111.399L38.0998 107.94C36.5524 106.392 34.1858 104.997 30.8786 104.997C24.8407 104.997 19.7737 109.305 19.7737 116.83C19.7737 124.476 24.7194 128.42 30.9696 128.42Z" fill="#FCBF49"/>
<path d="M43.0575 127.995H48.4886V120.046H51.098L55.2547 127.995H61.323L56.2863 119.045C58.6226 117.952 60.17 115.829 60.17 112.521C60.17 107.06 56.1649 105.391 51.3407 105.391H43.0575V127.995ZM48.4886 115.768V109.7H50.9159C53.4949 109.7 54.8906 110.397 54.8906 112.521C54.8906 114.645 53.4949 115.768 50.9159 115.768H48.4886Z" fill="#FCBF49"/>
<path d="M73.8541 128.42C80.0134 128.42 84.2005 123.99 84.2005 116.587C84.2005 109.214 80.0134 104.997 73.8541 104.997C67.6948 104.997 63.5078 109.184 63.5078 116.587C63.5078 123.99 67.6948 128.42 73.8541 128.42ZM73.8541 123.748C70.8807 123.748 69.0602 120.956 69.0602 116.587C69.0602 112.218 70.8807 109.639 73.8541 109.639C76.8275 109.639 78.6784 112.218 78.6784 116.587C78.6784 120.956 76.8275 123.748 73.8541 123.748Z" fill="#FCBF49"/>
<path d="M97.4333 128.42C103.441 128.42 106.475 124.992 106.475 117.376V105.391H101.256V117.952C101.256 122.231 99.8909 123.748 97.4333 123.748C94.9453 123.748 93.671 122.231 93.671 117.952V105.391H88.2702V117.376C88.2702 124.992 91.3954 128.42 97.4333 128.42Z" fill="#FCBF49"/>
<path d="M111.533 127.995H116.964V120.501H119.603C124.397 120.501 128.524 118.134 128.524 112.764C128.524 107.181 124.428 105.391 119.482 105.391H111.533V127.995ZM116.964 116.223V109.7H119.179C121.788 109.7 123.244 110.488 123.244 112.764C123.244 114.979 121.97 116.223 119.33 116.223H116.964Z" fill="#FCBF49"/>
<path d="M132.363 127.995H137.794V105.391H132.363V127.995Z" fill="#FCBF49"/>
<path d="M142.97 127.995H148.128V120.501C148.128 117.77 147.673 114.676 147.43 112.157H147.582L149.797 117.103L155.38 127.995H160.902V105.391H155.744V112.885C155.744 115.586 156.199 118.832 156.472 121.229H156.32L154.105 116.223L148.492 105.391H142.97V127.995Z" fill="#FCBF49"/>
<path d="M176.305 128.42C179.461 128.42 182.252 127.176 183.83 125.659V115.1H175.425V119.53H179.006V123.171C178.52 123.535 177.671 123.748 176.882 123.748C172.664 123.748 170.662 121.138 170.662 116.648C170.662 112.248 173.059 109.639 176.396 109.639C178.277 109.639 179.461 110.397 180.583 111.399L183.435 107.94C181.888 106.392 179.521 104.997 176.214 104.997C170.176 104.997 165.109 109.305 165.109 116.83C165.109 124.476 170.055 128.42 176.305 128.42Z" fill="#FCBF49"/>
<path d="M28.9698 130.914C32.1253 130.914 34.9167 129.67 36.4945 128.153V117.595H28.0899V122.024H31.6702V125.665C31.1847 126.03 30.3352 126.242 29.5463 126.242C25.3289 126.242 23.3264 123.633 23.3264 119.142C23.3264 114.743 25.7233 112.133 29.0609 112.133C30.942 112.133 32.1253 112.892 33.2479 113.893L36.1 110.434C34.5526 108.887 32.186 107.491 28.8788 107.491C22.8409 107.491 17.7739 111.8 17.7739 119.324C17.7739 126.97 22.7195 130.914 28.9698 130.914Z" fill="#FCF6E4"/>
<path d="M41.0577 130.49H46.4888V122.54H49.0982L53.2549 130.49H59.3231L54.2865 121.539C56.6228 120.447 58.1702 118.323 58.1702 115.016C58.1702 109.554 54.1651 107.885 49.3409 107.885H41.0577V130.49ZM46.4888 118.262V112.194H48.9161C51.4951 112.194 52.8908 112.892 52.8908 115.016C52.8908 117.14 51.4951 118.262 48.9161 118.262H46.4888Z" fill="#FCF6E4"/>
<path d="M71.8543 130.914C78.0136 130.914 82.2007 126.485 82.2007 119.081C82.2007 111.708 78.0136 107.491 71.8543 107.491C65.695 107.491 61.5079 111.678 61.5079 119.081C61.5079 126.485 65.695 130.914 71.8543 130.914ZM71.8543 126.242C68.8809 126.242 67.0604 123.451 67.0604 119.081C67.0604 114.712 68.8809 112.133 71.8543 112.133C74.8277 112.133 76.6786 114.712 76.6786 119.081C76.6786 123.451 74.8277 126.242 71.8543 126.242Z" fill="#FCF6E4"/>
<path d="M95.4335 130.914C101.441 130.914 104.475 127.486 104.475 119.87V107.885H99.2564V120.447C99.2564 124.725 97.8911 126.242 95.4335 126.242C92.9455 126.242 91.6711 124.725 91.6711 120.447V107.885H86.2704V119.87C86.2704 127.486 89.3956 130.914 95.4335 130.914Z" fill="#FCF6E4"/>
<path d="M109.533 130.49H114.964V122.995H117.604C122.398 122.995 126.524 120.629 126.524 115.258C126.524 109.676 122.428 107.885 117.482 107.885H109.533V130.49ZM114.964 118.717V112.194H117.179C119.788 112.194 121.245 112.983 121.245 115.258C121.245 117.473 119.97 118.717 117.331 118.717H114.964Z" fill="#FCF6E4"/>
<path d="M130.363 130.49H135.794V107.885H130.363V130.49Z" fill="#FCF6E4"/>
<path d="M140.97 130.49H146.128V122.995C146.128 120.265 145.673 117.17 145.431 114.652H145.582L147.797 119.597L153.38 130.49H158.902V107.885H153.744V115.38C153.744 118.08 154.199 121.327 154.472 123.724H154.321L152.106 118.717L146.492 107.885H140.97V130.49Z" fill="#FCF6E4"/>
<path d="M174.305 130.914C177.461 130.914 180.252 129.67 181.83 128.153V117.595H173.426V122.024H177.006V125.665C176.52 126.03 175.671 126.242 174.882 126.242C170.664 126.242 168.662 123.633 168.662 119.142C168.662 114.743 171.059 112.133 174.396 112.133C176.278 112.133 177.461 112.892 178.584 113.893L181.436 110.434C179.888 108.887 177.522 107.491 174.214 107.491C168.177 107.491 163.11 111.8 163.11 119.324C163.11 126.97 168.055 130.914 174.305 130.914Z" fill="#FCF6E4"/>
<path d="M20.2647 144.597C22.3178 144.597 23.7135 143.12 23.7135 140.652C23.7135 138.195 22.3178 136.789 20.2647 136.789C18.2116 136.789 16.8159 138.185 16.8159 140.652C16.8159 143.12 18.2116 144.597 20.2647 144.597ZM20.2647 143.039C19.2736 143.039 18.6667 142.109 18.6667 140.652C18.6667 139.196 19.2736 138.336 20.2647 138.336C21.2558 138.336 21.8728 139.196 21.8728 140.652C21.8728 142.109 21.2558 143.039 20.2647 143.039Z" fill="#FCF6E4"/>
<path d="M25.1105 144.455H26.8299V141.957C26.8299 141.047 26.6782 140.015 26.5972 139.176H26.6478L27.3861 140.824L29.247 144.455H31.0877V136.92H29.3684V139.418C29.3684 140.319 29.5201 141.401 29.6111 142.2H29.5606L28.8223 140.531L26.9512 136.92H25.1105V144.455Z" fill="#FCF6E4"/>
<path d="M32.8341 144.455H37.719V142.938H34.6445V141.34H37.1628V139.823H34.6445V138.427H37.6078V136.92H32.8341V144.455Z" fill="#FCF6E4"/>
<path d="M42.163 144.455H44.3981L45.0555 141.178C45.1668 140.602 45.2578 139.995 45.3589 139.429H45.3994C45.4702 139.995 45.5713 140.602 45.6927 141.178L46.3703 144.455H48.6459L49.9506 136.92H48.2414L47.7458 140.359C47.6548 141.138 47.5536 141.937 47.4626 142.746H47.412C47.2603 141.937 47.1288 141.128 46.9771 140.359L46.1984 136.92H44.6712L43.9026 140.359C43.7509 141.138 43.5992 141.937 43.4576 142.746H43.4171C43.316 141.937 43.2148 141.148 43.1137 140.359L42.6383 136.92H40.7976L42.163 144.455Z" fill="#FCF6E4"/>
<path d="M54.0726 144.597C56.1257 144.597 57.5214 143.12 57.5214 140.652C57.5214 138.195 56.1257 136.789 54.0726 136.789C52.0196 136.789 50.6239 138.185 50.6239 140.652C50.6239 143.12 52.0196 144.597 54.0726 144.597ZM54.0726 143.039C53.0815 143.039 52.4747 142.109 52.4747 140.652C52.4747 139.196 53.0815 138.336 54.0726 138.336C55.0638 138.336 55.6807 139.196 55.6807 140.652C55.6807 142.109 55.0638 143.039 54.0726 143.039Z" fill="#FCF6E4"/>
<path d="M58.9185 144.455H60.7288V141.805H61.5986L62.9842 144.455H65.0069L63.3281 141.471C64.1068 141.107 64.6226 140.399 64.6226 139.297C64.6226 137.477 63.2876 136.92 61.6795 136.92H58.9185V144.455ZM60.7288 140.379V138.356H61.5379C62.3976 138.356 62.8628 138.589 62.8628 139.297C62.8628 140.005 62.3976 140.379 61.5379 140.379H60.7288Z" fill="#FCF6E4"/>
<path d="M66.0791 144.455H67.8894V142.483L68.7086 141.37L70.4887 144.455H72.4608L69.7605 139.944L72.0361 136.92H70.0538L67.9198 139.904H67.8894V136.92H66.0791V144.455Z" fill="#FCF6E4"/>
<path d="M75.3192 144.597C77.1396 144.597 78.1915 143.494 78.1915 142.24C78.1915 141.178 77.6352 140.551 76.7047 140.177L75.7642 139.803C75.0967 139.54 74.6314 139.378 74.6314 138.953C74.6314 138.559 74.9652 138.336 75.5214 138.336C76.108 138.336 76.5733 138.538 77.0688 138.913L77.969 137.78C77.3116 137.123 76.3912 136.789 75.5214 136.789C73.9235 136.789 72.7907 137.8 72.7907 139.064C72.7907 140.157 73.529 140.814 74.3179 141.128L75.2787 141.532C75.926 141.805 76.3406 141.947 76.3406 142.382C76.3406 142.786 76.0271 143.039 75.3596 143.039C74.7629 143.039 74.0651 142.726 73.5391 142.27L72.5075 143.514C73.2863 144.233 74.3381 144.597 75.3192 144.597Z" fill="#FCF6E4"/>
<path d="M79.4422 144.455H81.2526V141.957H82.1325C83.7305 141.957 85.1059 141.168 85.1059 139.378C85.1059 137.517 83.7406 136.92 82.092 136.92H79.4422V144.455ZM81.2526 140.531V138.356H81.9909C82.8607 138.356 83.3462 138.619 83.3462 139.378C83.3462 140.116 82.9214 140.531 82.0415 140.531H81.2526Z" fill="#FCF6E4"/>
<path d="M87.6433 140.693C87.8355 139.944 88.0377 139.064 88.2198 138.276H88.2602C88.4625 139.044 88.6547 139.944 88.857 140.693L89.0188 141.33H87.4815L87.6433 140.693ZM84.862 144.455H86.7027L87.1376 142.726H89.3626L89.7975 144.455H91.6989L89.3626 136.92H87.1983L84.862 144.455Z" fill="#FCF6E4"/>
<path d="M95.5567 144.597C96.5377 144.597 97.3771 144.222 98.0143 143.484L97.0636 142.351C96.7096 142.736 96.2343 143.039 95.6275 143.039C94.5655 143.039 93.8778 142.169 93.8778 140.672C93.8778 139.206 94.6768 138.336 95.6477 138.336C96.1837 138.336 96.5782 138.579 96.9625 138.923L97.9031 137.77C97.3873 137.244 96.5984 136.789 95.6174 136.789C93.7059 136.789 92.027 138.225 92.027 140.733C92.027 143.282 93.6452 144.597 95.5567 144.597Z" fill="#FCF6E4"/>
<path d="M99.1166 144.455H104.002V142.938H100.927V141.34H103.445V139.823H100.927V138.427H103.89V136.92H99.1166V144.455Z" fill="#FCF6E4"/>
<path d="M109.629 140.693C109.821 139.944 110.023 139.064 110.205 138.276H110.246C110.448 139.044 110.64 139.944 110.842 140.693L111.004 141.33H109.467L109.629 140.693ZM106.848 144.455H108.688L109.123 142.726H111.348L111.783 144.455H113.684L111.348 136.92H109.184L106.848 144.455Z" fill="#FCF6E4"/>
<path d="M114.475 144.455H119.218V142.938H116.285V136.92H114.475V144.455Z" fill="#FCF6E4"/>
<path d="M120.519 144.455H125.263V142.938H122.33V136.92H120.519V144.455Z" fill="#FCF6E4"/>
<path d="M130.332 144.455H132.142V138.427H134.185V136.92H128.299V138.427H130.332V144.455Z" fill="#FCF6E4"/>
<path d="M138.113 144.597C140.167 144.597 141.562 143.12 141.562 140.652C141.562 138.195 140.167 136.789 138.113 136.789C136.06 136.789 134.665 138.185 134.665 140.652C134.665 143.12 136.06 144.597 138.113 144.597ZM138.113 143.039C137.122 143.039 136.515 142.109 136.515 140.652C136.515 139.196 137.122 138.336 138.113 138.336C139.105 138.336 139.722 139.196 139.722 140.652C139.722 142.109 139.105 143.039 138.113 143.039Z" fill="#FCF6E4"/>
<path d="M146.347 144.597C147.399 144.597 148.33 144.182 148.856 143.676V140.157H146.054V141.633H147.248V142.847C147.086 142.968 146.803 143.039 146.54 143.039C145.134 143.039 144.466 142.169 144.466 140.672C144.466 139.206 145.265 138.336 146.378 138.336C147.005 138.336 147.399 138.589 147.773 138.923L148.724 137.77C148.208 137.254 147.419 136.789 146.317 136.789C144.304 136.789 142.615 138.225 142.615 140.733C142.615 143.282 144.264 144.597 146.347 144.597Z" fill="#FCF6E4"/>
<path d="M150.377 144.455H155.262V142.938H152.187V141.34H154.705V139.823H152.187V138.427H155.15V136.92H150.377V144.455Z" fill="#FCF6E4"/>
<path d="M158.204 144.455H160.014V138.427H162.057V136.92H156.171V138.427H158.204V144.455Z" fill="#FCF6E4"/>
<path d="M163.216 144.455H165.027V141.36H167.505V144.455H169.305V136.92H167.505V139.793H165.027V136.92H163.216V144.455Z" fill="#FCF6E4"/>
<path d="M171.049 144.455H175.934V142.938H172.859V141.34H175.377V139.823H172.859V138.427H175.822V136.92H171.049V144.455Z" fill="#FCF6E4"/>
<path d="M177.419 144.455H179.229V141.805H180.099L181.485 144.455H183.508L181.829 141.471C182.607 141.107 183.123 140.399 183.123 139.297C183.123 137.477 181.788 136.92 180.18 136.92H177.419V144.455ZM179.229 140.379V138.356H180.039C180.898 138.356 181.363 138.589 181.363 139.297C181.363 140.005 180.898 140.379 180.039 140.379H179.229Z" fill="#FCF6E4"/>
<path d="M20.782 145.808C22.8351 145.808 24.2308 144.331 24.2308 141.863C24.2308 139.406 22.8351 138 20.782 138C18.7289 138 17.3333 139.396 17.3333 141.863C17.3333 144.331 18.7289 145.808 20.782 145.808ZM20.782 144.25C19.7909 144.25 19.1841 143.32 19.1841 141.863C19.1841 140.407 19.7909 139.547 20.782 139.547C21.7732 139.547 22.3901 140.407 22.3901 141.863C22.3901 143.32 21.7732 144.25 20.782 144.25Z" fill="#FCBF49"/>
<path d="M25.6279 145.666H27.3472V143.168C27.3472 142.258 27.1955 141.226 27.1146 140.387H27.1651L27.9035 142.035L29.7644 145.666H31.6051V138.131H29.8857V140.63C29.8857 141.53 30.0375 142.612 30.1285 143.411H30.0779L29.3396 141.742L27.4686 138.131H25.6279V145.666Z" fill="#FCBF49"/>
<path d="M33.3514 145.666H38.2364V144.149H35.1618V142.551H37.6801V141.034H35.1618V139.638H38.1251V138.131H33.3514V145.666Z" fill="#FCBF49"/>
<path d="M110.146 141.904C110.338 141.155 110.541 140.276 110.723 139.487H110.763C110.965 140.255 111.158 141.155 111.36 141.904L111.522 142.541H109.984L110.146 141.904ZM107.365 145.666H109.206L109.64 143.937H111.866L112.3 145.666H114.202L111.866 138.131H109.701L107.365 145.666Z" fill="#FCBF49"/>
<path d="M114.992 145.666H119.736V144.149H116.803V138.131H114.992V145.666Z" fill="#FCBF49"/>
<path d="M121.037 145.666H125.78V144.149H122.847V138.131H121.037V145.666Z" fill="#FCBF49"/>
<path d="M109.763 85.772C121.662 85.772 132.236 81.5325 138.505 76.2457C138.938 75.8804 139.175 75.338 139.175 74.7713V38.9975C139.175 37.8929 138.28 36.9975 137.175 36.9975H108.324C107.219 36.9975 106.324 37.8929 106.324 38.9975V51.2186C106.324 52.3232 107.219 53.2186 108.324 53.2186H118.318C119.423 53.2186 120.318 54.114 120.318 55.2186V65.5119C120.318 66.1633 120.007 66.7861 119.428 67.0849C117.482 68.0895 114.662 68.662 112.016 68.662C95.5311 68.662 87.7036 59.1071 87.7036 42.6638C87.7036 26.5538 97.0729 16.9988 110.119 16.9988C116.63 16.9988 121.003 19.1771 124.966 22.2219C125.826 22.8827 127.057 22.7938 127.773 21.9797L136.353 12.2325C137.066 11.4215 137.011 10.1867 136.188 9.48741C130.147 4.35815 121.345 0 109.407 0C85.806 0 66 15.7767 66 43.3304C66 71.3285 85.3316 85.772 109.763 85.772Z" fill="#FCBF49"/>
<path d="M104.763 92C116.662 92 127.236 87.7606 133.505 82.4738C133.938 82.1084 134.175 81.566 134.175 80.9993V45.2255C134.175 44.1209 133.28 43.2255 132.175 43.2255H103.324C102.219 43.2255 101.324 44.1209 101.324 45.2255V57.4466C101.324 58.5512 102.219 59.4466 103.324 59.4466H113.318C114.423 59.4466 115.318 60.3421 115.318 61.4466V71.74C115.318 72.3914 115.007 73.0141 114.428 73.3129C112.482 74.3175 109.662 74.89 107.016 74.89C90.5311 74.89 82.7036 65.3351 82.7036 48.8918C82.7036 32.7818 92.0729 23.2269 105.119 23.2269C111.63 23.2269 116.003 25.4051 119.966 28.4499C120.826 29.1107 122.057 29.0218 122.773 28.2077L131.353 18.4605C132.066 17.6495 132.011 16.4147 131.188 15.7154C125.147 10.5862 116.345 6.22803 104.407 6.22803C80.806 6.22803 61 22.0047 61 49.5584C61 77.5565 80.3316 92 104.763 92Z" fill="#FCF6E4"/>
<path d="M72.2044 32.6948C72.2044 34.904 73.9953 36.6948 76.2044 36.6948C78.4135 36.6948 80.2044 34.904 80.2044 32.6948C80.2044 30.4857 78.4135 28.6948 76.2044 28.6948C73.9953 28.6948 72.2044 30.4857 72.2044 32.6948ZM72.2044 66.6431C72.2044 68.8523 73.9953 70.6431 76.2044 70.6431C78.4135 70.6431 80.2044 68.8523 80.2044 66.6431C80.2044 64.434 78.4135 62.6431 76.2044 62.6431C73.9953 62.6431 72.2044 64.434 72.2044 66.6431ZM77.0704 66.1334C76.7889 65.8296 76.3144 65.8115 76.0106 66.093C75.7067 66.3745 75.6886 66.849 75.9701 67.1529L77.0704 66.1334ZM105.086 81.5355C105.086 83.7446 106.877 85.5355 109.086 85.5355C111.295 85.5355 113.086 83.7446 113.086 81.5355C113.086 79.3263 111.295 77.5355 109.086 77.5355C106.877 77.5355 105.086 79.3263 105.086 81.5355ZM108.896 81.5524C108.506 81.6919 108.303 82.1211 108.442 82.5112C108.582 82.9012 109.011 83.1043 109.401 82.9648L108.896 81.5524ZM123.075 52.7552C123.075 54.9643 124.866 56.7552 127.075 56.7552C129.284 56.7552 131.075 54.9643 131.075 52.7552C131.075 50.546 129.284 48.7552 127.075 48.7552C124.866 48.7552 123.075 50.546 123.075 52.7552ZM102.156 14.9473C102.156 17.1565 103.947 18.9473 106.156 18.9473C108.365 18.9473 110.156 17.1565 110.156 14.9473C110.156 12.7382 108.365 10.9473 106.156 10.9473C103.947 10.9473 102.156 12.7382 102.156 14.9473ZM74.8926 32.6299C74.6548 32.9691 74.737 33.4368 75.0762 33.6746C75.4153 33.9123 75.883 33.8301 76.1208 33.491L74.8926 32.6299ZM105.148 52.7552C105.148 54.9643 106.939 56.7552 109.148 56.7552C111.358 56.7552 113.148 54.9643 113.148 52.7552C113.148 50.5461 111.358 48.7552 109.148 48.7552C106.939 48.7552 105.148 50.5461 105.148 52.7552ZM127.103 53.487C127.507 53.5778 127.909 53.3237 127.999 52.9196C128.09 52.5155 127.836 52.1142 127.432 52.0234L127.103 53.487ZM75.5214 32.385C72.4939 39.0589 70.9671 44.345 70.9793 49.671C70.9915 54.9955 72.5418 60.2797 75.5196 66.9489L76.8892 66.3373C73.9477 59.7493 72.4908 54.6884 72.4793 49.6676C72.4678 44.6483 73.9007 39.5888 76.8874 33.0046L75.5214 32.385ZM75.9701 67.1529C81.0441 72.6291 85.4359 76.2227 90.5298 78.5395C95.62 80.8546 101.348 81.866 109.045 82.2844L109.127 80.7866C101.509 80.3725 95.9949 79.3773 91.1508 77.1741C86.3103 74.9726 82.0763 71.5362 77.0704 66.1334L75.9701 67.1529ZM109.401 82.9648C117.767 79.9734 123.212 76.8432 126.124 72.1387C129.044 67.4222 129.311 61.301 127.814 52.6277L126.336 52.8827C127.819 61.4748 127.466 67.122 124.849 71.3492C122.225 75.5883 117.217 78.5771 108.896 81.5524L109.401 82.9648ZM106.065 14.2029C98.2903 15.1543 92.6434 16.6568 87.8514 19.5034C83.0575 22.3511 79.1873 26.5037 74.8926 32.6299L76.1208 33.491C80.3604 27.4434 84.0852 23.4854 88.6175 20.793C93.1518 18.0994 98.5625 16.6322 106.247 15.6918L106.065 14.2029ZM109.313 53.487C112.848 52.694 115.568 52.3123 118.255 52.3155C120.943 52.3186 123.631 52.7067 127.103 53.487L127.432 52.0234C123.903 51.2304 121.096 50.8188 118.257 50.8155C115.418 50.8121 112.579 51.217 108.984 52.0234L109.313 53.487Z" fill="#FCBF49"/>
</svg>
