<svg width="200" height="148" viewBox="0 0 200 148" fill="none" xmlns="http://www.w3.org/2000/svg">
<path d="M30.9698 128.42C34.1253 128.42 36.9166 127.176 38.4944 125.659V115.1H30.0899V119.53H33.6701V123.171C33.1847 123.535 32.3351 123.748 31.5462 123.748C27.3288 123.748 25.3263 121.138 25.3263 116.648C25.3263 112.248 27.7233 109.639 31.0608 109.639C32.9419 109.639 34.1253 110.397 35.2479 111.399L38.1 107.94C36.5526 106.392 34.1859 104.997 30.8787 104.997C24.8408 104.997 19.7739 109.305 19.7739 116.83C19.7739 124.476 24.7195 128.42 30.9698 128.42Z" fill="#1E1E1E"/>
<path d="M43.0577 127.995H48.4887V120.046H51.0981L55.2548 127.995H61.3231L56.2864 119.045C58.6227 117.952 60.1701 115.829 60.1701 112.521C60.1701 107.06 56.1651 105.391 51.3408 105.391H43.0577V127.995ZM48.4887 115.768V109.7H50.916C53.495 109.7 54.8907 110.397 54.8907 112.521C54.8907 114.645 53.495 115.768 50.916 115.768H48.4887Z" fill="#1E1E1E"/>
<path d="M73.8542 128.42C80.0135 128.42 84.2006 123.99 84.2006 116.587C84.2006 109.214 80.0135 104.997 73.8542 104.997C67.695 104.997 63.5079 109.184 63.5079 116.587C63.5079 123.99 67.695 128.42 73.8542 128.42ZM73.8542 123.748C70.8808 123.748 69.0603 120.956 69.0603 116.587C69.0603 112.218 70.8808 109.639 73.8542 109.639C76.8277 109.639 78.6785 112.218 78.6785 116.587C78.6785 120.956 76.8277 123.748 73.8542 123.748Z" fill="#1E1E1E"/>
<path d="M97.4334 128.42C103.441 128.42 106.475 124.992 106.475 117.376V105.391H101.256V117.952C101.256 122.231 99.891 123.748 97.4334 123.748C94.9454 123.748 93.6711 122.231 93.6711 117.952V105.391H88.2703V117.376C88.2703 124.992 91.3955 128.42 97.4334 128.42Z" fill="#1E1E1E"/>
<path d="M111.533 127.995H116.964V120.501H119.604C124.397 120.501 128.524 118.134 128.524 112.764C128.524 107.181 124.428 105.391 119.482 105.391H111.533V127.995ZM116.964 116.223V109.7H119.179C121.788 109.7 123.245 110.488 123.245 112.764C123.245 114.979 121.97 116.223 119.331 116.223H116.964Z" fill="#1E1E1E"/>
<path d="M132.363 127.995H137.794V105.391H132.363V127.995Z" fill="#1E1E1E"/>
<path d="M142.97 127.995H148.128V120.501C148.128 117.77 147.673 114.676 147.43 112.157H147.582L149.797 117.103L155.38 127.995H160.902V105.391H155.744V112.885C155.744 115.586 156.199 118.832 156.472 121.229H156.32L154.106 116.223L148.492 105.391H142.97V127.995Z" fill="#1E1E1E"/>
<path d="M176.305 128.42C179.461 128.42 182.252 127.176 183.83 125.659V115.1H175.425V119.53H179.006V123.171C178.52 123.535 177.671 123.748 176.882 123.748C172.664 123.748 170.662 121.138 170.662 116.648C170.662 112.248 173.059 109.639 176.396 109.639C178.278 109.639 179.461 110.397 180.583 111.399L183.436 107.94C181.888 106.392 179.522 104.997 176.214 104.997C170.176 104.997 165.109 109.305 165.109 116.83C165.109 124.476 170.055 128.42 176.305 128.42Z" fill="#1E1E1E"/>
<path d="M28.97 130.914C32.1254 130.914 34.9168 129.67 36.4946 128.153V117.595H28.0901V122.024H31.6703V125.665C31.1849 126.03 30.3353 126.242 29.5464 126.242C25.329 126.242 23.3265 123.633 23.3265 119.142C23.3265 114.743 25.7234 112.133 29.061 112.133C30.9421 112.133 32.1254 112.892 33.2481 113.893L36.1001 110.434C34.5527 108.887 32.1861 107.491 28.8789 107.491C22.841 107.491 17.774 111.8 17.774 119.324C17.774 126.97 22.7197 130.914 28.97 130.914Z" fill="#FCBF49"/>
<path d="M41.0579 130.49H46.4889V122.54H49.0983L53.255 130.49H59.3233L54.2866 121.539C56.6229 120.447 58.1703 118.323 58.1703 115.016C58.1703 109.554 54.1653 107.885 49.341 107.885H41.0579V130.49ZM46.4889 118.262V112.194H48.9162C51.4952 112.194 52.8909 112.892 52.8909 115.016C52.8909 117.14 51.4952 118.262 48.9162 118.262H46.4889Z" fill="#FCBF49"/>
<path d="M71.8544 130.914C78.0137 130.914 82.2008 126.485 82.2008 119.081C82.2008 111.708 78.0137 107.491 71.8544 107.491C65.6952 107.491 61.5081 111.678 61.5081 119.081C61.5081 126.485 65.6952 130.914 71.8544 130.914ZM71.8544 126.242C68.881 126.242 67.0605 123.451 67.0605 119.081C67.0605 114.712 68.881 112.133 71.8544 112.133C74.8279 112.133 76.6787 114.712 76.6787 119.081C76.6787 123.451 74.8279 126.242 71.8544 126.242Z" fill="#FCBF49"/>
<path d="M95.4336 130.914C101.441 130.914 104.475 127.486 104.475 119.87V107.885H99.2566V120.447C99.2566 124.725 97.8912 126.242 95.4336 126.242C92.9456 126.242 91.6713 124.725 91.6713 120.447V107.885H86.2705V119.87C86.2705 127.486 89.3957 130.914 95.4336 130.914Z" fill="#FCBF49"/>
<path d="M109.533 130.49H114.964V122.995H117.604C122.398 122.995 126.524 120.629 126.524 115.258C126.524 109.676 122.428 107.885 117.482 107.885H109.533V130.49ZM114.964 118.717V112.194H117.179C119.788 112.194 121.245 112.983 121.245 115.258C121.245 117.473 119.97 118.717 117.331 118.717H114.964Z" fill="#FCBF49"/>
<path d="M130.363 130.49H135.794V107.885H130.363V130.49Z" fill="#FCBF49"/>
<path d="M140.971 130.49H146.129V122.995C146.129 120.265 145.673 117.17 145.431 114.652H145.582L147.797 119.597L153.38 130.49H158.902V107.885H153.744V115.38C153.744 118.08 154.199 121.327 154.472 123.724H154.321L152.106 118.717L146.493 107.885H140.971V130.49Z" fill="#FCBF49"/>
<path d="M174.306 130.914C177.461 130.914 180.252 129.67 181.83 128.153V117.595H173.426V122.024H177.006V125.665C176.52 126.03 175.671 126.242 174.882 126.242C170.665 126.242 168.662 123.633 168.662 119.142C168.662 114.743 171.059 112.133 174.397 112.133C176.278 112.133 177.461 112.892 178.584 113.893L181.436 110.434C179.888 108.887 177.522 107.491 174.215 107.491C168.177 107.491 163.11 111.8 163.11 119.324C163.11 126.97 168.055 130.914 174.306 130.914Z" fill="#FCBF49"/>
<path d="M20.2648 144.597C22.3179 144.597 23.7136 143.12 23.7136 140.652C23.7136 138.195 22.3179 136.789 20.2648 136.789C18.2117 136.789 16.816 138.185 16.816 140.652C16.816 143.12 18.2117 144.597 20.2648 144.597ZM20.2648 143.039C19.2737 143.039 18.6669 142.109 18.6669 140.652C18.6669 139.196 19.2737 138.336 20.2648 138.336C21.256 138.336 21.8729 139.196 21.8729 140.652C21.8729 142.109 21.256 143.039 20.2648 143.039Z" fill="#FCBF49"/>
<path d="M25.1106 144.455H26.83V141.957C26.83 141.047 26.6783 140.015 26.5974 139.176H26.6479L27.3862 140.824L29.2472 144.455H31.0879V136.92H29.3685V139.418C29.3685 140.319 29.5202 141.401 29.6113 142.2H29.5607L28.8224 140.531L26.9514 136.92H25.1106V144.455Z" fill="#FCBF49"/>
<path d="M32.8342 144.455H37.7192V142.938H34.6446V141.34H37.1629V139.823H34.6446V138.427H37.6079V136.92H32.8342V144.455Z" fill="#FCBF49"/>
<path d="M42.1631 144.455H44.3983L45.0557 141.178C45.1669 140.602 45.2579 139.995 45.3591 139.429H45.3995C45.4703 139.995 45.5715 140.602 45.6928 141.178L46.3704 144.455H48.646L49.9507 136.92H48.2415L47.7459 140.359C47.6549 141.138 47.5537 141.937 47.4627 142.746H47.4122C47.2605 141.937 47.129 141.128 46.9773 140.359L46.1985 136.92H44.6713L43.9027 140.359C43.751 141.138 43.5993 141.937 43.4577 142.746H43.4172C43.3161 141.937 43.215 141.148 43.1138 140.359L42.6385 136.92H40.7978L42.1631 144.455Z" fill="#FCBF49"/>
<path d="M54.0728 144.597C56.1259 144.597 57.5216 143.12 57.5216 140.652C57.5216 138.195 56.1259 136.789 54.0728 136.789C52.0197 136.789 50.624 138.185 50.624 140.652C50.624 143.12 52.0197 144.597 54.0728 144.597ZM54.0728 143.039C53.0816 143.039 52.4748 142.109 52.4748 140.652C52.4748 139.196 53.0816 138.336 54.0728 138.336C55.0639 138.336 55.6808 139.196 55.6808 140.652C55.6808 142.109 55.0639 143.039 54.0728 143.039Z" fill="#FCBF49"/>
<path d="M58.9186 144.455H60.7289V141.805H61.5987L62.9843 144.455H65.0071L63.3282 141.471C64.1069 141.107 64.6227 140.399 64.6227 139.297C64.6227 137.477 63.2877 136.92 61.6796 136.92H58.9186V144.455ZM60.7289 140.379V138.356H61.538C62.3977 138.356 62.8629 138.589 62.8629 139.297C62.8629 140.005 62.3977 140.379 61.538 140.379H60.7289Z" fill="#FCBF49"/>
<path d="M66.0792 144.455H67.8896V142.483L68.7088 141.37L70.4888 144.455H72.461L69.7606 139.944L72.0362 136.92H70.0539L67.9199 139.904H67.8896V136.92H66.0792V144.455Z" fill="#FCBF49"/>
<path d="M75.3193 144.597C77.1398 144.597 78.1916 143.494 78.1916 142.24C78.1916 141.178 77.6353 140.551 76.7049 140.177L75.7643 139.803C75.0968 139.54 74.6315 139.378 74.6315 138.953C74.6315 138.559 74.9653 138.336 75.5216 138.336C76.1081 138.336 76.5734 138.538 77.069 138.913L77.9691 137.78C77.3117 137.123 76.3913 136.789 75.5216 136.789C73.9236 136.789 72.7908 137.8 72.7908 139.064C72.7908 140.157 73.5291 140.814 74.318 141.128L75.2788 141.532C75.9261 141.805 76.3408 141.947 76.3408 142.382C76.3408 142.786 76.0272 143.039 75.3597 143.039C74.763 143.039 74.0652 142.726 73.5393 142.27L72.5077 143.514C73.2864 144.233 74.3382 144.597 75.3193 144.597Z" fill="#FCBF49"/>
<path d="M79.4424 144.455H81.2527V141.957H82.1326C83.7306 141.957 85.1061 141.168 85.1061 139.378C85.1061 137.517 83.7407 136.92 82.0922 136.92H79.4424V144.455ZM81.2527 140.531V138.356H81.991C82.8608 138.356 83.3463 138.619 83.3463 139.378C83.3463 140.116 82.9215 140.531 82.0416 140.531H81.2527Z" fill="#FCBF49"/>
<path d="M87.6434 140.693C87.8356 139.944 88.0379 139.064 88.2199 138.276H88.2604C88.4626 139.044 88.6548 139.944 88.8571 140.693L89.0189 141.33H87.4816L87.6434 140.693ZM84.8621 144.455H86.7028L87.1377 142.726H89.3628L89.7977 144.455H91.699L89.3628 136.92H87.1984L84.8621 144.455Z" fill="#FCBF49"/>
<path d="M95.5568 144.597C96.5378 144.597 97.3773 144.222 98.0144 143.484L97.0637 142.351C96.7098 142.736 96.2344 143.039 95.6276 143.039C94.5656 143.039 93.8779 142.169 93.8779 140.672C93.8779 139.206 94.6769 138.336 95.6478 138.336C96.1838 138.336 96.5783 138.579 96.9626 138.923L97.9032 137.77C97.3874 137.244 96.5985 136.789 95.6175 136.789C93.706 136.789 92.0271 138.225 92.0271 140.733C92.0271 143.282 93.6453 144.597 95.5568 144.597Z" fill="#FCBF49"/>
<path d="M99.1167 144.455H104.002V142.938H100.927V141.34H103.445V139.823H100.927V138.427H103.89V136.92H99.1167V144.455Z" fill="#FCBF49"/>
<path d="M109.629 140.693C109.821 139.944 110.023 139.064 110.205 138.276H110.246C110.448 139.044 110.64 139.944 110.843 140.693L111.004 141.33H109.467L109.629 140.693ZM106.848 144.455H108.688L109.123 142.726H111.348L111.783 144.455H113.685L111.348 136.92H109.184L106.848 144.455Z" fill="#FCBF49"/>
<path d="M114.475 144.455H119.218V142.938H116.285V136.92H114.475V144.455Z" fill="#FCBF49"/>
<path d="M120.52 144.455H125.263V142.938H122.33V136.92H120.52V144.455Z" fill="#FCBF49"/>
<path d="M130.332 144.455H132.142V138.427H134.185V136.92H128.299V138.427H130.332V144.455Z" fill="#FCBF49"/>
<path d="M138.114 144.597C140.167 144.597 141.562 143.12 141.562 140.652C141.562 138.195 140.167 136.789 138.114 136.789C136.061 136.789 134.665 138.185 134.665 140.652C134.665 143.12 136.061 144.597 138.114 144.597ZM138.114 143.039C137.122 143.039 136.516 142.109 136.516 140.652C136.516 139.196 137.122 138.336 138.114 138.336C139.105 138.336 139.722 139.196 139.722 140.652C139.722 142.109 139.105 143.039 138.114 143.039Z" fill="#FCBF49"/>
<path d="M146.348 144.597C147.399 144.597 148.33 144.182 148.856 143.676V140.157H146.054V141.633H147.248V142.847C147.086 142.968 146.803 143.039 146.54 143.039C145.134 143.039 144.466 142.169 144.466 140.672C144.466 139.206 145.265 138.336 146.378 138.336C147.005 138.336 147.399 138.589 147.774 138.923L148.724 137.77C148.208 137.254 147.42 136.789 146.317 136.789C144.305 136.789 142.616 138.225 142.616 140.733C142.616 143.282 144.264 144.597 146.348 144.597Z" fill="#FCBF49"/>
<path d="M150.377 144.455H155.262V142.938H152.187V141.34H154.705V139.823H152.187V138.427H155.151V136.92H150.377V144.455Z" fill="#FCBF49"/>
<path d="M158.204 144.455H160.014V138.427H162.057V136.92H156.171V138.427H158.204V144.455Z" fill="#FCBF49"/>
<path d="M163.217 144.455H165.027V141.36H167.505V144.455H169.305V136.92H167.505V139.793H165.027V136.92H163.217V144.455Z" fill="#FCBF49"/>
<path d="M171.049 144.455H175.934V142.938H172.859V141.34H175.377V139.823H172.859V138.427H175.822V136.92H171.049V144.455Z" fill="#FCBF49"/>
<path d="M177.419 144.455H179.23V141.805H180.099L181.485 144.455H183.508L181.829 141.471C182.608 141.107 183.123 140.399 183.123 139.297C183.123 137.477 181.788 136.92 180.18 136.92H177.419V144.455ZM179.23 140.379V138.356H180.039C180.898 138.356 181.364 138.589 181.364 139.297C181.364 140.005 180.898 140.379 180.039 140.379H179.23Z" fill="#FCBF49"/>
<path d="M20.7821 145.808C22.8352 145.808 24.2309 144.331 24.2309 141.863C24.2309 139.406 22.8352 138 20.7821 138C18.729 138 17.3333 139.396 17.3333 141.863C17.3333 144.331 18.729 145.808 20.7821 145.808ZM20.7821 144.25C19.791 144.25 19.1841 143.32 19.1841 141.863C19.1841 140.407 19.791 139.547 20.7821 139.547C21.7732 139.547 22.3902 140.407 22.3902 141.863C22.3902 143.32 21.7732 144.25 20.7821 144.25Z" fill="#1E1E1E"/>
<path d="M25.6279 145.666H27.3473V143.168C27.3473 142.258 27.1956 141.226 27.1146 140.387H27.1652L27.9035 142.035L29.7644 145.666H31.6051V138.131H29.8858V140.63C29.8858 141.53 30.0375 142.612 30.1285 143.411H30.078L29.3397 141.742L27.4686 138.131H25.6279V145.666Z" fill="#1E1E1E"/>
<path d="M33.3515 145.666H38.2364V144.149H35.1619V142.551H37.6802V141.034H35.1619V139.638H38.1252V138.131H33.3515V145.666Z" fill="#1E1E1E"/>
<path d="M110.146 141.904C110.338 141.155 110.541 140.276 110.723 139.487H110.763C110.965 140.255 111.158 141.155 111.36 141.904L111.522 142.541H109.984L110.146 141.904ZM107.365 145.666H109.206L109.641 143.937H111.866L112.3 145.666H114.202L111.866 138.131H109.701L107.365 145.666Z" fill="#1E1E1E"/>
<path d="M114.992 145.666H119.736V144.149H116.803V138.131H114.992V145.666Z" fill="#1E1E1E"/>
<path d="M121.037 145.666H125.78V144.149H122.847V138.131H121.037V145.666Z" fill="#1E1E1E"/>
<path d="M109.763 85.772C121.662 85.772 132.236 81.5325 138.505 76.2457C138.938 75.8804 139.175 75.338 139.175 74.7713V38.9975C139.175 37.8929 138.28 36.9975 137.175 36.9975H108.324C107.219 36.9975 106.324 37.8929 106.324 38.9975V51.2186C106.324 52.3232 107.219 53.2186 108.324 53.2186H118.318C119.423 53.2186 120.318 54.114 120.318 55.2186V65.5119C120.318 66.1633 120.007 66.7861 119.428 67.0849C117.482 68.0895 114.662 68.662 112.016 68.662C95.5311 68.662 87.7036 59.1071 87.7036 42.6638C87.7036 26.5538 97.0729 16.9988 110.119 16.9988C116.63 16.9988 121.003 19.1771 124.966 22.2219C125.826 22.8827 127.057 22.7938 127.773 21.9797L136.353 12.2325C137.066 11.4215 137.011 10.1867 136.188 9.48741C130.147 4.35815 121.345 0 109.407 0C85.806 0 66 15.7767 66 43.3304C66 71.3285 85.3316 85.772 109.763 85.772Z" fill="#1E1E1E"/>
<path d="M104.763 92C116.662 92 127.236 87.7606 133.505 82.4738C133.938 82.1084 134.175 81.566 134.175 80.9994V45.2255C134.175 44.121 133.28 43.2255 132.175 43.2255H103.324C102.219 43.2255 101.324 44.121 101.324 45.2255V57.4467C101.324 58.5512 102.219 59.4467 103.324 59.4467H113.318C114.423 59.4467 115.318 60.3421 115.318 61.4467V71.74C115.318 72.3914 115.007 73.0141 114.428 73.3129C112.482 74.3176 109.662 74.8901 107.016 74.8901C90.5311 74.8901 82.7036 65.3351 82.7036 48.8918C82.7036 32.7818 92.0729 23.2269 105.119 23.2269C111.63 23.2269 116.003 25.4052 119.966 28.45C120.826 29.1107 122.057 29.0218 122.773 28.2077L131.353 18.4605C132.066 17.6495 132.011 16.4148 131.188 15.7154C125.147 10.5862 116.345 6.22804 104.407 6.22804C80.806 6.22804 61 22.0047 61 49.5584C61 77.5565 80.3316 92 104.763 92Z" fill="#FCBF49"/>
<path d="M72.2045 32.6948C72.2045 34.9039 73.9953 36.6948 76.2045 36.6948C78.4136 36.6948 80.2045 34.9039 80.2045 32.6948C80.2045 30.4857 78.4136 28.6948 76.2045 28.6948C73.9953 28.6948 72.2045 30.4857 72.2045 32.6948ZM72.2045 66.6431C72.2045 68.8522 73.9953 70.6431 76.2045 70.6431C78.4136 70.6431 80.2045 68.8522 80.2045 66.6431C80.2045 64.434 78.4136 62.6431 76.2045 62.6431C73.9953 62.6431 72.2045 64.434 72.2045 66.6431ZM77.0705 66.1334C76.789 65.8295 76.3145 65.8114 76.0106 66.0929C75.7068 66.3745 75.6887 66.849 75.9702 67.1528L77.0705 66.1334ZM105.086 81.5354C105.086 83.7446 106.877 85.5354 109.086 85.5354C111.295 85.5354 113.086 83.7446 113.086 81.5354C113.086 79.3263 111.295 77.5354 109.086 77.5354C106.877 77.5354 105.086 79.3263 105.086 81.5354ZM108.896 81.5524C108.506 81.6919 108.303 82.1211 108.442 82.5111C108.582 82.9012 109.011 83.1043 109.401 82.9648L108.896 81.5524ZM123.075 52.7552C123.075 54.9643 124.866 56.7552 127.075 56.7552C129.285 56.7552 131.075 54.9643 131.075 52.7552C131.075 50.546 129.285 48.7552 127.075 48.7552C124.866 48.7552 123.075 50.546 123.075 52.7552ZM102.156 14.9473C102.156 17.1564 103.947 18.9473 106.156 18.9473C108.365 18.9473 110.156 17.1564 110.156 14.9473C110.156 12.7382 108.365 10.9473 106.156 10.9473C103.947 10.9473 102.156 12.7382 102.156 14.9473ZM74.8926 32.6299C74.6548 32.9691 74.737 33.4368 75.0762 33.6745C75.4154 33.9123 75.8831 33.8301 76.1209 33.4909L74.8926 32.6299ZM105.149 52.7552C105.149 54.9643 106.939 56.7552 109.149 56.7552C111.358 56.7552 113.149 54.9643 113.149 52.7552C113.149 50.546 111.358 48.7552 109.149 48.7552C106.939 48.7552 105.149 50.546 105.149 52.7552ZM127.103 53.4869C127.508 53.5777 127.909 53.3237 128 52.9196C128.09 52.5154 127.836 52.1142 127.432 52.0234L127.103 53.4869ZM75.5215 32.385C72.494 39.0589 70.9672 44.3449 70.9794 49.671C70.9916 54.9955 72.5418 60.2797 75.5196 66.9489L76.8893 66.3373C73.9477 59.7493 72.4909 54.6884 72.4794 49.6676C72.4679 44.6483 73.9008 39.5888 76.8875 33.0046L75.5215 32.385ZM75.9702 67.1528C81.0441 72.6291 85.4359 76.2227 90.5298 78.5395C95.62 80.8546 101.348 81.866 109.045 82.2843L109.127 80.7866C101.509 80.3725 95.995 79.3773 91.1508 77.1741C86.3104 74.9726 82.0764 71.5362 77.0705 66.1334L75.9702 67.1528ZM109.401 82.9648C117.767 79.9734 123.212 76.8432 126.124 72.1387C129.044 67.4221 129.311 61.301 127.814 52.6276L126.336 52.8827C127.819 61.4748 127.466 67.122 124.849 71.3492C122.225 75.5883 117.217 78.5771 108.896 81.5524L109.401 82.9648ZM106.065 14.2029C98.2904 15.1543 92.6435 16.6567 87.8515 19.5033C83.0576 22.3511 79.1873 26.5037 74.8926 32.6299L76.1209 33.4909C80.3605 27.4434 84.0852 23.4854 88.6176 20.793C93.1519 18.0994 98.5625 16.6322 106.247 15.6918L106.065 14.2029ZM109.313 53.487C112.849 52.6939 115.568 52.3122 118.256 52.3154C120.943 52.3186 123.631 52.7067 127.103 53.4869L127.432 52.0234C123.903 51.2304 121.096 50.8188 118.257 50.8154C115.418 50.8121 112.58 51.217 108.984 52.0234L109.313 53.487Z" fill="#1E1E1E"/>
</svg>
