<svg width="850" height="700" viewBox="0 0 850 700" fill="none" xmlns="http://www.w3.org/2000/svg">
<path d="M778.365 53H71.6355C45.8794 53 25 71.4689 25 94.2515V605.237C25 628.02 45.8794 646.489 71.6355 646.489H778.365C804.121 646.489 825 628.02 825 605.237V94.2515C825 71.4689 804.121 53 778.365 53Z" fill="#E1E0E1"/>
<path d="M72.8189 62.3232H269.536L289.051 89.9324H590.438L610.023 62.3232H776.043C797.976 62.3232 815.633 78.6093 815.633 98.8391V600.649C815.633 620.879 797.976 637.165 776.043 637.165H72.8189C50.8859 637.165 33.2285 620.879 33.2285 600.649V98.8391C33.2285 78.6093 50.8859 62.3232 72.8189 62.3232Z" fill="#ECECEC"/>
<path d="M353.715 85.4871C359.984 85.4871 365.066 80.6274 365.066 74.6327C365.066 68.638 359.984 63.7783 353.715 63.7783C347.446 63.7783 342.364 68.638 342.364 74.6327C342.364 80.6274 347.446 85.4871 353.715 85.4871Z" fill="#ECECEC"/>
<path d="M534.666 70.1765H382.145C378.587 70.1765 375.702 72.3718 375.702 75.0799C375.702 77.788 378.587 79.9833 382.145 79.9833H534.666C538.224 79.9833 541.109 77.788 541.109 75.0799C541.109 72.3718 538.224 70.1765 534.666 70.1765Z" fill="#ECECEC"/>
<path d="M598.423 232.644H349.682V460.094H598.423V232.644Z" fill="#E1E0E1"/>
<path d="M543.59 232.46H534.915V459.911H543.59V232.46Z" fill="#ECECEC"/>
<path d="M414.073 232.58H405.397V460.031H414.073V232.58Z" fill="#ECECEC"/>
<path d="M478.582 232.644H469.906V460.094H478.582V232.644Z" fill="#ECECEC"/>
<path d="M598.423 304.459H349.682V314.213H598.423V304.459Z" fill="#ECECEC"/>
<path d="M598.423 380.565H349.682V390.319H598.423V380.565Z" fill="#ECECEC"/>
<path d="M520.544 635.303C505.736 635.383 490.473 635.684 476.863 634.894L435.601 635.12C426.099 635.172 494.937 592.176 518.394 592.176C541.85 592.176 530.025 635.253 520.544 635.303Z" fill="#E9C46A"/>
<path d="M443.352 635.303C457.365 636.675 470.884 636.335 484.614 635.529C495.187 634.909 492.26 593.671 439.992 583.997C386.66 581.809 369.997 641.817 443.352 635.303Z" fill="#E9C46A"/>
<path d="M460.156 599.415C457.21 608.034 466.483 612.353 464.089 617.624C460.482 624.255 455.611 635.495 449.641 635.759C460.751 636.22 472.033 635.897 483.349 635.425C502.308 631.568 476.222 590.439 463.084 594.993C463.084 594.993 461.816 594.993 460.156 599.415ZM439.232 596.242C438.998 596.257 438.764 596.31 438.528 596.409C410.883 607.95 426.693 628.61 432.303 631.248L440.93 635.304C442.741 635.884 449.523 635.758 449.641 635.759C443.744 635.686 439.59 627.442 443.824 620.03C448.089 612.564 443.987 595.961 439.232 596.242Z" fill="white" fill-opacity="0.699482"/>
<path d="M435.773 607.544C435.761 610.553 437.087 634.642 443.352 635.303C431.375 633.999 435.759 611.474 435.773 607.544Z" fill="#E9C46A"/>
<path d="M468.756 605.665C468.758 607.017 471.606 615.293 470.954 620.953C470.147 627.95 466.18 635.417 464.015 635.19C469.898 633.742 471.625 626.909 471.981 620.338C472.282 614.797 468.737 607.451 468.756 605.665Z" fill="#E9C46A"/>
<path opacity="0.8" d="M517.848 599.135C517.859 600.579 515.32 612.579 513.47 618.626C511.184 626.103 490.783 635.546 484.646 635.303C501.305 633.731 514.098 624.931 516.004 619.106C517.864 613.422 517.794 601.043 517.848 599.135Z" fill="white" fill-opacity="0.699482"/>
<path d="M559.01 635.256L569.046 635.35C567.962 618.411 574.584 616.076 560.899 610.143C541.913 602.767 543.697 607.97 554.172 624.377C557.08 628.932 555.405 635.223 559.01 635.256Z" fill="#E1E0E1"/>
<path d="M567.834 611.186C567.18 611.229 566.587 612.1 566.119 614.099C564.998 618.886 567.343 622.582 566.431 625.51C565.059 629.194 562.897 635.117 560.626 635.264L573.759 635.399C576.686 634.841 571.366 610.953 567.834 611.186ZM554.337 633.078L557.698 635.243C558.298 635.254 560.299 635.265 560.344 635.269C558.1 635.228 557.11 630.964 558.721 626.847C560.344 622.7 550.478 620.175 548.669 620.331C543.209 626.305 549.791 629.172 554.337 633.078Z" fill="#E1E0E1"/>
<path d="M550.222 622.888C550.22 623.807 553.324 625.861 555.296 628.988C556.912 631.548 557.535 634.887 559.01 635.257C557.004 634.731 556.05 630.893 554.561 628.499C552.667 625.455 550.219 624.11 550.222 622.888Z" fill="#ECECEC"/>
<path d="M568.398 619.344C568.399 620.095 569.482 624.692 569.234 627.836C568.927 631.723 567.417 635.871 566.594 635.745C568.832 634.941 569.49 631.145 569.625 627.495C569.739 624.417 568.39 620.336 568.398 619.344Z" fill="#ECECEC"/>
<path d="M585.001 333.653C628.792 333.653 664.291 296.472 664.291 250.607C664.291 204.742 628.792 167.561 585.001 167.561C541.211 167.561 505.711 204.742 505.711 250.607C505.711 296.472 541.211 333.653 585.001 333.653Z" fill="#E9C46A"/>
<path opacity="0.8" d="M591.597 196.683H584.035V256.644H591.597V196.683Z" fill="white" fill-opacity="0.7"/>
<path opacity="0.8" d="M543.59 252.901V256.645H584.035V252.901H543.59Z" fill="white" fill-opacity="0.7"/>
<path opacity="0.8" d="M469.906 313.21H413.579V379.529H469.906V313.21Z" fill="#E9C46A" fill-opacity="0.700764"/>
<path d="M249.665 254.539C249.665 251.953 252.645 249.856 256.321 249.856C259.997 249.856 262.977 251.953 262.977 254.539V263.359C262.977 265.945 259.997 268.042 256.321 268.042C252.645 268.042 249.665 265.945 249.665 263.359V254.539Z" fill="#2E2E2E"/>
<path d="M256.15 259.792C248.069 259.792 241.518 251.65 241.518 241.607C241.518 231.563 248.069 223.422 256.15 223.422C264.231 223.422 270.782 231.563 270.782 241.607C270.782 251.65 264.231 259.792 256.15 259.792Z" fill="#E9967A"/>
<path d="M231.304 371.75H276.166C292.989 371.75 295.156 390.642 295.156 403.935L298.082 612.458H263.452C264.32 613.308 255.16 433.032 255.16 427.697C255.16 425.272 246.382 612.458 246.382 612.458C248.819 612.399 210.288 612.458 210.288 612.458L212.239 403.935C212.337 394.426 214.482 371.75 231.304 371.75Z" fill="#8C8C8C"/>
<path d="M206.683 403.779C202.318 402.606 201.379 392.964 201.541 380.788C201.703 368.612 205.671 358.786 210.405 358.84C215.138 358.895 218.845 368.81 218.683 380.985C218.584 388.478 218.161 397.418 216.291 401.571C215.183 404.033 208.437 404.251 206.683 403.779Z" fill="#E9967A"/>
<path d="M226.703 273.188C201.351 291.403 195.021 383.013 200.141 382.943C210.187 382.806 212.386 383.118 219.805 383.179C222.387 383.198 221.379 337.146 221.428 326.039C221.395 321.471 220.072 358.199 219.636 366.788C220.118 372.436 295.727 369.518 295.035 365.537C298.994 357.384 293.871 342.941 292.366 326.206C302.808 331.788 311.375 324.715 312.287 318.127C313.261 311.099 308.568 301.227 308.568 301.227C289.904 259.404 250.405 254.464 226.703 273.188Z" fill="#2E2E2E"/>
<path d="M238.321 239.453C238.309 239.386 240.323 246.305 242.456 248.013C244.339 249.52 241.662 244.457 243.206 241.541C246.187 235.915 275.158 242.681 279.013 236.892C282.774 231.243 279.753 224.933 267.087 220.939C261.414 219.15 260.839 219.827 250.025 222.493C240.121 224.933 237.485 232.312 238.321 239.453Z" fill="black"/>
<path d="M216.142 612.458H240.528C244.215 612.458 245.968 615.843 246.625 618.353C247.939 623.376 247.182 627.027 246.625 630.81C246.247 633.377 243.657 635.493 239.97 635.493H216.7C213.013 635.493 202.317 635.338 199.708 635.303C193.12 635.209 186.399 630.612 192.806 623.143C195.518 619.618 212.453 612.453 216.142 612.453V612.458Z" fill="black"/>
<path d="M292.961 612.458H268.574C264.887 612.458 263.133 615.843 262.476 618.353C261.162 623.376 261.92 627.027 262.476 630.81C262.855 633.377 265.445 635.493 269.132 635.493H292.402C296.089 635.493 306.785 635.338 309.394 635.303C315.981 635.209 322.703 630.612 316.296 623.143C313.584 619.618 296.649 612.453 292.961 612.453V612.458Z" fill="black"/>
<path d="M266.175 281.034H250.244C248.971 281.034 247.94 282.065 247.94 283.338V315.4C247.94 316.672 248.971 317.704 250.244 317.704H266.175C267.447 317.704 268.479 316.672 268.479 315.4V283.338C268.479 282.065 267.447 281.034 266.175 281.034Z" fill="#E9C46A"/>
<path d="M257.123 290.661C256.999 290.65 256.861 290.639 256.733 290.628C254.324 290.472 251.405 295.578 251.067 297.123C250.217 300.964 257.511 305.645 267.261 310.515C268.12 310.945 268.977 311.342 269.827 311.71C269.857 311.639 269.887 311.568 269.916 311.497C270.175 310.827 270.451 310.167 270.748 309.513C271.049 308.812 271.392 308.128 271.779 307.47C272.129 306.804 272.534 306.165 272.921 305.519C273.312 304.877 273.738 304.252 274.194 303.654C274.625 303.05 275.113 302.483 275.602 301.926C276.05 301.374 276.555 300.866 277.07 300.374C277.376 300.042 277.709 299.735 278.045 299.433C276.801 298.667 275.476 297.928 274.083 297.231C268.271 294.328 261.255 291.101 257.127 290.662L257.123 290.661Z" fill="#E9967A"/>
</svg>
