<svg width="850" height="700" viewBox="0 0 850 700" fill="none" xmlns="http://www.w3.org/2000/svg">
<path d="M771.952 60H77.5927C61.142 60 47.8062 73.4441 47.8062 90.0282V544.395C47.8062 560.979 61.142 574.423 77.5927 574.423H771.952C788.403 574.423 801.739 560.979 801.739 544.395V90.0282C801.739 73.4441 788.403 60 771.952 60Z" fill="#E1E0E1"/>
<path d="M825 585.744V602.021C825 622.663 809.3 639.282 789.799 639.282H60.2014C40.6998 639.282 25 622.663 25 602.021V585.744H825Z" fill="#E1E0E1"/>
<path d="M771.86 69.8235H78.1407C71.5208 69.8235 66.1543 75.2335 66.1543 81.9071V91.7704C66.1543 98.444 71.5208 103.854 78.1407 103.854H771.86C778.479 103.854 783.846 98.444 783.846 91.7704V81.9071C783.846 75.2335 778.479 69.8235 771.86 69.8235Z" fill="#ECECEC"/>
<path d="M224.252 126.944H66.1543V551.61H224.252V126.944Z" fill="#ECECEC"/>
<path d="M732.887 182.365H365.916V249.057H732.887V182.365Z" fill="#ECECEC"/>
<path d="M733.706 267.327H365.139V501.359H733.706V267.327Z" fill="#ECECEC"/>
<path d="M478.186 388.82H404.882V306.557H478.186V388.82Z" fill="#E1E0E1"/>
<path d="M681.031 306.557H487.816V317.033H681.031V306.557Z" fill="#E1E0E1"/>
<path d="M681.031 321.194H487.816V331.67H681.031V321.194Z" fill="#E1E0E1"/>
<path d="M681.031 335.831H487.816V346.307H681.031V335.831Z" fill="#E1E0E1"/>
<path d="M623.625 374.044H487.816V378.966H623.625V374.044Z" fill="#E1E0E1"/>
<path d="M581.48 383.127H487.816V388.049H581.48V383.127Z" fill="#E1E0E1"/>
<path d="M291.507 206.348C291.709 203.443 288.772 200.863 284.947 200.586C281.121 200.308 277.856 202.439 277.654 205.344L276.964 215.253C276.762 218.158 279.699 220.737 283.525 221.015C287.35 221.292 290.615 219.162 290.818 216.257L291.507 206.348Z" fill="#2E2E2E"/>
<path d="M388.468 270.009C387.564 274.331 378.577 275.774 367.168 276.281C355.76 276.789 346.382 273.454 346.222 268.833C346.063 264.212 355.182 260.055 366.59 259.547C373.611 259.235 382.001 259.159 385.973 260.756C388.327 261.702 388.832 268.271 388.468 270.009Z" fill="#E9967A"/>
<path d="M237.762 535.951C243.408 525.698 250.053 511.423 256.174 496.955C261.978 483.238 267.311 469.348 270.877 458.549C273.987 449.133 277.605 434.842 277.353 428.876C276.173 400.999 274.031 381.371 272.995 357.533C272.83 353.726 272.692 349.811 272.592 345.738C274.853 372.628 276.383 402.596 277.353 428.876C279.677 491.877 177.416 433.138 165.331 428.973L174.921 403.035C194.263 411.057 224.366 417.885 245.04 420.426C246.342 410.473 237.843 382.855 237.905 368.705C237.404 353.281 233.367 322.984 254.482 303.958C261.787 297.677 270.778 297.086 276.616 297.361C301.407 299.284 309.903 324.482 312.569 353.731C314.785 378.053 312.969 405.175 313.137 424.045C310.593 468.21 273.092 530.65 263.219 548.607C250.916 542.713 242.147 538.604 237.762 535.951Z" fill="#8C8C8C"/>
<path d="M238.311 536.277C236.379 536.856 234.263 537 232.576 538.8C229.899 541.657 223.869 550.569 232.454 554.931L262.136 570.475C264.824 571.883 275.378 577.411 277.515 572.778C281.549 563.701 269.762 557.839 262.728 548.372L238.311 536.277Z" fill="black"/>
<path d="M174.565 403.999C173.758 402.09 173.393 399.508 171.421 397.942C168.292 395.457 158.816 390.052 155.609 399.072L144.065 430.295C143.02 433.123 138.915 444.225 143.717 446.026C153.107 449.401 157.264 435.923 165.663 428.075L170.126 416.004L174.565 403.999Z" fill="black"/>
<path d="M282.507 214.497C276.258 214.79 265.459 215.005 254.381 226.69C233.554 242.998 223.137 261.284 231.098 271.266C234.656 274.096 243.485 270.934 243.485 270.934C243.485 270.934 237.1 292.636 238.797 291.946L315.584 297.244C317.009 292.203 315.046 271.9 313.199 264.946C308.933 278.779 333.607 278.413 366.959 280.07C368.86 280.964 371.731 267.573 369.532 256.924C369.532 256.924 322.196 252.743 314.054 246.817C309.021 232.131 303.538 223.927 299.337 219.404C296.929 218.018 294.662 214.094 282.507 214.497Z" fill="#2E2E2E"/>
<path d="M284.895 211.259C293.305 211.868 300.759 203.216 301.544 191.933C302.33 180.651 296.149 171.01 287.738 170.401C279.328 169.791 271.874 178.443 271.089 189.726C270.304 201.009 276.485 210.649 284.895 211.259Z" fill="#E9967A"/>
<path d="M267.343 219.086C278.353 218.814 281.417 218.715 284.894 211.259C285.173 210.661 289.514 201.044 285.66 197.443C283.479 195.404 285.917 187.503 289.009 192.191C292.322 197.212 289.683 184.76 295.265 186.248C298.708 187.166 301.023 186.438 301.169 185.178C310.763 163.185 275.899 146.22 241.428 183.343C230.043 193.051 238.133 193.448 229.594 195.883C213.55 200.459 225.988 230.207 232.083 221.015C258.174 233.624 261.162 222.706 267.343 219.086Z" fill="black"/>
<path d="M426.253 208.158L447.196 207.737L429.42 220.487L436.287 240.555L418.836 227.351L402.138 240.175L409.128 219.265L391.941 207.123L413.712 207.403L419.788 187.075L426.253 208.158Z" fill="#E9C46A"/>
<path d="M492.466 208.773L513.408 208.352L495.633 221.102L502.499 241.169L485.049 227.966L468.35 240.79L475.34 219.879L458.154 207.737L479.924 208.017L486.001 187.689L492.466 208.773Z" fill="#E9C46A"/>
<path d="M557.308 209.387L578.251 208.966L560.475 221.716L567.342 241.784L549.891 228.58L533.193 241.404L540.183 220.494L522.996 208.352L544.767 208.632L550.844 188.304L557.308 209.387Z" fill="#E9C46A"/>
<path d="M622.151 210.002L643.093 209.581L625.318 222.331L632.185 242.398L614.734 229.195L598.036 242.019L605.026 221.108L587.839 208.966L609.61 209.246L615.686 188.918L622.151 210.002Z" fill="#E9C46A"/>
<path d="M685.624 210.616L706.567 210.195L688.791 222.945L695.658 243.013L678.207 229.81L661.509 242.633L668.499 221.723L651.312 209.581L673.083 209.861L679.16 189.533L685.624 210.616Z" fill="#E9C46A"/>
<path d="M499.953 560.118C483.252 536.356 538.629 559.35 540.909 530.829C541.512 523.293 549.056 506.467 556.471 505.383C562.437 504.511 557.449 510.102 556.414 517.067C555.563 522.787 555.702 527.532 557.86 524.556C566.309 512.907 630.549 460.313 643.322 480.05C659.1 504.432 609.216 575.675 580.697 575.205L516.008 574.139C510.572 574.049 503.065 564.528 500.014 560.205" fill="#E9C46A"/>
<path d="M548.891 549.82C533.071 499.052 489.653 486.037 498.839 507.968C500.19 511.193 510.855 526.99 507.732 526.314C485.355 521.466 461.217 456.495 445.924 476.874C428.496 500.097 477.146 574.257 505.668 574.423L570.358 574.8C575.793 574.877 555.699 560.139 548.891 549.82Z" fill="#E9C46A"/>
<path opacity="0.8" d="M551.855 574.729C542.02 569.224 543.543 573.673 539.255 566.313C535.131 559.233 541.879 555.81 531.809 546.576C513.258 533.716 512.328 531.159 506.167 549.971C504.704 554.437 508.671 574.364 538.013 574.612L551.855 574.729Z" fill="white" fill-opacity="0.703073"/>
<path opacity="0.8" d="M551.856 574.729C551.55 535.85 586.128 506.492 590.698 540.516C588.302 558.897 578.703 556.876 570.561 558.752C556.192 562.062 561.273 574.495 556.098 574.423" fill="white" fill-opacity="0.696617"/>
</svg>
