<svg width="26" height="25" viewBox="0 0 26 25" fill="none" xmlns="http://www.w3.org/2000/svg">
<path d="M8.83337 2.08331V5.20831M17.1667 2.08331V5.20831M4.14587 9.46873H21.8542M23.4167 19.7916C23.4167 20.5729 23.198 21.3125 22.8125 21.9375C22.4453 22.5547 21.9237 23.0656 21.299 23.4199C20.6744 23.7742 19.9682 23.9598 19.25 23.9583C18.198 23.9583 17.2396 23.5729 16.5105 22.9166C16.1875 22.6458 15.9063 22.3125 15.6875 21.9375C15.291 21.2921 15.0818 20.5491 15.0834 19.7916C15.0834 17.4896 16.948 15.625 19.25 15.625C20.5 15.625 21.6146 16.1771 22.375 17.0416C23.0449 17.8012 23.4153 18.7788 23.4167 19.7916Z" stroke="#5C5C5C" stroke-width="2" stroke-miterlimit="10" stroke-linecap="round" stroke-linejoin="round"/>
<path d="M17.625 19.7916L18.6562 20.8229L20.875 18.7708" stroke="#5C5C5C" stroke-width="1.5" stroke-linecap="round" stroke-linejoin="round"/>
<path d="M22.375 8.85415V17.0416C21.6146 16.1771 20.5 15.625 19.25 15.625C16.9479 15.625 15.0833 17.4896 15.0833 19.7916C15.0833 20.5729 15.3021 21.3125 15.6875 21.9375C15.9062 22.3125 16.1875 22.6458 16.5104 22.9166H8.83333C5.1875 22.9166 3.625 20.8333 3.625 17.7083V8.85415C3.625 5.72915 5.1875 3.64581 8.83333 3.64581H17.1667C20.8125 3.64581 22.375 5.72915 22.375 8.85415Z" stroke="#5C5C5C" stroke-width="2" stroke-miterlimit="10" stroke-linecap="round" stroke-linejoin="round"/>
<path d="M12.9947 14.2708H13.0052M9.13953 14.2708H9.14994M9.13953 17.3958H9.14994" stroke="#5C5C5C" stroke-width="2" stroke-linecap="round" stroke-linejoin="round"/>
</svg>
