<svg width="26" height="26" viewBox="0 0 26 26" fill="none" xmlns="http://www.w3.org/2000/svg">
<g clip-path="url(#clip0_865_1800)">
<path d="M23.4167 8.23958V14.4896C23.4167 16.0521 22.8959 17.3542 21.9792 18.2708C21.073 19.1771 19.7709 19.6979 18.2084 19.6979V21.9167C18.2084 22.75 17.2813 23.25 16.5938 22.7917L11.9584 19.6979H9.75004C9.83337 19.3854 9.87504 19.0625 9.87504 18.7292C9.87504 17.6667 9.46879 16.6875 8.80212 15.9479C8.41469 15.5102 7.93831 15.1602 7.4048 14.9213C6.87129 14.6823 6.29293 14.56 5.70837 14.5625C4.54171 14.5625 3.47921 15.0417 2.71879 15.8229C2.62504 15.4062 2.58337 14.9583 2.58337 14.4896V8.23958C2.58337 5.11458 4.66671 3.03125 7.79171 3.03125H18.2084C21.3334 3.03125 23.4167 5.11458 23.4167 8.23958Z" stroke="white" stroke-width="2" stroke-miterlimit="10" stroke-linecap="round" stroke-linejoin="round"/>
<path d="M9.87497 18.7292C9.87497 19.5104 9.65622 20.25 9.2708 20.875C9.05205 21.25 8.7708 21.5833 8.44789 21.8542C7.71872 22.5104 6.76038 22.8958 5.7083 22.8958C4.99014 22.8973 4.28397 22.7118 3.6593 22.3574C3.03464 22.0031 2.51302 21.4922 2.1458 20.875C1.74928 20.2296 1.5401 19.4866 1.54163 18.7292C1.54163 17.4167 2.1458 16.2396 3.10413 15.4792C3.71663 14.9882 4.45537 14.6804 5.23522 14.591C6.01507 14.5017 6.80429 14.6345 7.51194 14.9742C8.21959 15.3139 8.81687 15.8466 9.23495 16.5109C9.65302 17.1753 9.87489 17.9442 9.87497 18.7292Z" stroke="white" stroke-width="2" stroke-miterlimit="10" stroke-linecap="round" stroke-linejoin="round"/>
<path d="M4.08337 18.7291L5.11462 19.7604L7.33337 17.7083" stroke="white" stroke-width="2" stroke-linecap="round" stroke-linejoin="round"/>
<path d="M9.35413 11.4375H16.6458" stroke="white" stroke-width="2" stroke-miterlimit="10" stroke-linecap="round" stroke-linejoin="round"/>
</g>
<defs>
<clipPath id="clip0_865_1800">
<rect width="25" height="25" fill="white" transform="translate(0.5 0.5)"/>
</clipPath>
</defs>
</svg>
