<svg width="26" height="26" viewBox="0 0 26 26" fill="none" xmlns="http://www.w3.org/2000/svg">
<g clip-path="url(#clip0_706_2019)">
<path d="M23.4166 8.23958V14.4896C23.4166 16.0521 22.8958 17.3542 21.9791 18.2708C21.0729 19.1771 19.7708 19.6979 18.2083 19.6979V21.9167C18.2083 22.75 17.2812 23.25 16.5937 22.7917L11.9583 19.6979H9.74998C9.83331 19.3854 9.87498 19.0625 9.87498 18.7292C9.87498 17.6667 9.46873 16.6875 8.80206 15.9479C8.41463 15.5102 7.93825 15.1602 7.40474 14.9213C6.87122 14.6823 6.29287 14.56 5.70831 14.5625C4.54165 14.5625 3.47915 15.0417 2.71873 15.8229C2.62498 15.4062 2.58331 14.9583 2.58331 14.4896V8.23958C2.58331 5.11458 4.66665 3.03125 7.79165 3.03125H18.2083C21.3333 3.03125 23.4166 5.11458 23.4166 8.23958Z" stroke="#5C5C5C" stroke-width="2" stroke-miterlimit="10" stroke-linecap="round" stroke-linejoin="round"/>
<path d="M9.87503 18.7292C9.87503 19.5104 9.65628 20.25 9.27086 20.875C9.05211 21.25 8.77086 21.5833 8.44795 21.8542C7.71878 22.5104 6.76045 22.8958 5.70836 22.8958C4.9902 22.8973 4.28403 22.7118 3.65936 22.3574C3.0347 22.0031 2.51308 21.4922 2.14586 20.875C1.74934 20.2296 1.54016 19.4866 1.5417 18.7292C1.5417 17.4167 2.14586 16.2396 3.1042 15.4792C3.71669 14.9882 4.45543 14.6804 5.23528 14.591C6.01513 14.5017 6.80435 14.6345 7.512 14.9742C8.21965 15.3139 8.81693 15.8466 9.23501 16.5109C9.65308 17.1753 9.87495 17.9442 9.87503 18.7292Z" stroke="#5C5C5C" stroke-width="2" stroke-miterlimit="10" stroke-linecap="round" stroke-linejoin="round"/>
<path d="M4.08331 18.7291L5.11456 19.7604L7.33331 17.7083" stroke="#5C5C5C" stroke-width="2" stroke-linecap="round" stroke-linejoin="round"/>
<path d="M9.35419 11.4375H16.6459" stroke="#5C5C5C" stroke-width="2" stroke-miterlimit="10" stroke-linecap="round" stroke-linejoin="round"/>
</g>
<defs>
<clipPath id="clip0_706_2019">
<rect width="25" height="25" fill="white" transform="translate(0.5 0.5)"/>
</clipPath>
</defs>
</svg>
