<svg width="26" height="26" viewBox="0 0 26 26" fill="none" xmlns="http://www.w3.org/2000/svg">
<path d="M21.3333 20.5636H11.8854C11.4167 20.5636 11.0313 20.1781 11.0313 19.7094C11.0313 19.2406 11.4167 18.8552 11.8854 18.8552H21.3333C21.8021 18.8552 22.1875 19.2406 22.1875 19.7094C22.1875 20.1886 21.8021 20.5636 21.3333 20.5636ZM21.3333 14.0084H11.8854C11.4167 14.0084 11.0313 13.6229 11.0313 13.1542C11.0313 12.6854 11.4167 12.3 11.8854 12.3H21.3333C21.8021 12.3 22.1875 12.6854 22.1875 13.1542C22.1875 13.6229 21.8021 14.0084 21.3333 14.0084ZM21.3333 7.44898H11.8854C11.4167 7.44898 11.0313 7.06356 11.0313 6.59481C11.0313 6.12606 11.4167 5.74065 11.8854 5.74065H21.3333C21.8021 5.74065 22.1875 6.12606 22.1875 6.59481C22.1875 7.06356 21.8021 7.44898 21.3333 7.44898ZM5.61459 8.86669C5.38543 8.86669 5.16668 8.77294 5.01043 8.61669L4.06251 7.66877C3.90227 7.50854 3.81226 7.29121 3.81226 7.06461C3.81226 6.9524 3.83436 6.8413 3.87729 6.73763C3.92023 6.63397 3.98317 6.53978 4.06251 6.46044C4.14185 6.3811 4.23604 6.31816 4.3397 6.27522C4.44337 6.23228 4.55447 6.21018 4.66668 6.21018C4.89328 6.21018 5.11061 6.3002 5.27084 6.46044L5.61459 6.80419L7.84376 4.57502C8.00399 4.41479 8.22132 4.32477 8.44793 4.32477C8.67453 4.32477 8.89186 4.41479 9.05209 4.57502C9.21233 4.73526 9.30235 4.95258 9.30235 5.17919C9.30235 5.4058 9.21233 5.62312 9.05209 5.78336L6.21876 8.61669C6.05209 8.77294 5.84376 8.86669 5.61459 8.86669ZM5.61459 15.4261C5.39584 15.4261 5.17709 15.3427 5.01043 15.1761L4.06251 14.2281C3.90227 14.0679 3.81226 13.8506 3.81226 13.624C3.81226 13.3974 3.90227 13.18 4.06251 13.0198C4.22274 12.8596 4.44007 12.7696 4.66668 12.7696C4.89328 12.7696 5.11061 12.8596 5.27084 13.0198L5.61459 13.3636L7.84376 11.1344C8.00399 10.9742 8.22132 10.8841 8.44793 10.8841C8.67453 10.8841 8.89186 10.9742 9.05209 11.1344C9.21233 11.2946 9.30235 11.512 9.30235 11.7386C9.30235 11.9652 9.21233 12.1825 9.05209 12.3427L6.21876 15.1761C6.05209 15.3427 5.83334 15.4261 5.61459 15.4261ZM5.61459 21.6761C5.39584 21.6761 5.17709 21.5927 5.01043 21.4261L4.06251 20.4781C3.98317 20.3988 3.92023 20.3046 3.87729 20.201C3.83436 20.0973 3.81226 19.9862 3.81226 19.874C3.81226 19.7618 3.83436 19.6507 3.87729 19.547C3.92023 19.4433 3.98317 19.3492 4.06251 19.2698C4.22274 19.1096 4.44007 19.0196 4.66668 19.0196C4.77888 19.0196 4.88999 19.0417 4.99365 19.0846C5.09731 19.1275 5.1915 19.1905 5.27084 19.2698L5.61459 19.6136L7.84376 17.3844C8.0062 17.2353 8.21992 17.1548 8.44033 17.1595C8.66074 17.1642 8.87081 17.2539 9.0267 17.4098C9.18259 17.5657 9.27226 17.7757 9.27699 17.9962C9.28172 18.2166 9.20115 18.4303 9.05209 18.5927L6.21876 21.4261C6.05209 21.5927 5.83334 21.6761 5.61459 21.6761Z" fill="#5C5C5C"/>
</svg>
